<?xml version="1.0" encoding="UTF-8" standalone="no"?>
<svg
   xmlns:dc="http://purl.org/dc/elements/1.1/"
   xmlns:cc="http://creativecommons.org/ns#"
   xmlns:rdf="http://www.w3.org/1999/02/22-rdf-syntax-ns#"
   xmlns:svg="http://www.w3.org/2000/svg"
   xmlns="http://www.w3.org/2000/svg"
   xmlns:sodipodi="http://sodipodi.sourceforge.net/DTD/sodipodi-0.dtd"
   xmlns:inkscape="http://www.inkscape.org/namespaces/inkscape"
   version="1.1"
   id="Capa_1"
   x="0px"
   y="0px"
   viewBox="0 0 294.834 294.834"
   style="enable-background:new 0 0 294.834 294.834;"
   xml:space="preserve"
   sodipodi:docname="multi-tab.svg"
   inkscape:version="1.0 (4035a4fb49, 2020-05-01)"><metadata
   id="metadata43"><rdf:RDF><cc:Work
       rdf:about=""><dc:format>image/svg+xml</dc:format><dc:type
         rdf:resource="http://purl.org/dc/dcmitype/StillImage" /></cc:Work></rdf:RDF></metadata><defs
   id="defs41" /><sodipodi:namedview
   inkscape:document-rotation="0"
   pagecolor="#ffffff"
   bordercolor="#666666"
   borderopacity="1"
   objecttolerance="10"
   gridtolerance="10"
   guidetolerance="10"
   inkscape:pageopacity="0"
   inkscape:pageshadow="2"
   inkscape:window-width="1920"
   inkscape:window-height="986"
   id="namedview39"
   showgrid="false"
   inkscape:zoom="2.7133911"
   inkscape:cx="147.41701"
   inkscape:cy="159.94745"
   inkscape:window-x="-11"
   inkscape:window-y="-11"
   inkscape:window-maximized="1"
   inkscape:current-layer="g6" />
<g
   id="g6">
	<path
   style="fill:#ffffff"
   d="M 288.834,0 H 47.413 c -3.313,0 -6,2.687 -6,6 v 17.398 c 0,3.313 2.687,6 6,6 3.313,0 26.774136,0.08501 29.955264,-0.840405 l 16.584413,0.02682 173.033993,0 -0.36854,211.730957 0.39536,1.84272 c 0,0 -1.57749,1.94991 -1.57749,5.26291 0,3.313 2.687,6 6,6 h 17.398 c 3.313,0 6,-2.687 6,-6 V 6 c 0,-3.313 -2.687,-6 -6,-6 z"
   id="path2"
   sodipodi:nodetypes="sssssscccsssssss" />
	<path
   style="fill:#ffffff"
   d="M 247.421,41.413 H 6 c -3.313,0 -6,2.687 -6,6 v 241.421 c 0,3.313 2.687,6 6,6 h 241.421 c 3.313,0 6,-2.687 6,-6 V 47.413 c 0,-3.313 -2.687,-6 -6,-6 z M 214.14885,250.40226 40.746317,250.7708 41.114859,76.631178 214.88594,75.525551 Z"
   id="path4"
   sodipodi:nodetypes="sssssssssccccc" />
</g>
<g
   id="g8">
</g>
<g
   id="g10">
</g>
<g
   id="g12">
</g>
<g
   id="g14">
</g>
<g
   id="g16">
</g>
<g
   id="g18">
</g>
<g
   id="g20">
</g>
<g
   id="g22">
</g>
<g
   id="g24">
</g>
<g
   id="g26">
</g>
<g
   id="g28">
</g>
<g
   id="g30">
</g>
<g
   id="g32">
</g>
<g
   id="g34">
</g>
<g
   id="g36">
</g>
</svg>
