<?xml version="1.0" encoding="UTF-8" standalone="no"?>
<svg
   xmlns:dc="http://purl.org/dc/elements/1.1/"
   xmlns:cc="http://creativecommons.org/ns#"
   xmlns:rdf="http://www.w3.org/1999/02/22-rdf-syntax-ns#"
   xmlns:svg="http://www.w3.org/2000/svg"
   xmlns="http://www.w3.org/2000/svg"
   xmlns:sodipodi="http://sodipodi.sourceforge.net/DTD/sodipodi-0.dtd"
   xmlns:inkscape="http://www.inkscape.org/namespaces/inkscape"
   height="392.526"
   width="371.98401"
   version="1.1"
   id="Capa_1"
   x="0px"
   y="0px"
   viewBox="0 0 371.98401 392.526"
   xml:space="preserve"
   sodipodi:docname="css.svg"
   inkscape:version="1.0 (4035a4fb49, 2020-05-01)"><metadata
   id="metadata53"><rdf:RDF><cc:Work
       rdf:about=""><dc:format>image/svg+xml</dc:format><dc:type
         rdf:resource="http://purl.org/dc/dcmitype/StillImage" /></cc:Work></rdf:RDF></metadata><defs
   id="defs51" /><sodipodi:namedview
   inkscape:document-rotation="0"
   pagecolor="#ffffff"
   bordercolor="#666666"
   borderopacity="1"
   objecttolerance="10"
   gridtolerance="10"
   guidetolerance="10"
   inkscape:pageopacity="0"
   inkscape:pageshadow="2"
   inkscape:window-width="1920"
   inkscape:window-height="1000"
   id="namedview49"
   showgrid="false"
   inkscape:zoom="1.5898438"
   inkscape:cx="185.992"
   inkscape:cy="35.88718"
   inkscape:window-x="-11"
   inkscape:window-y="-11"
   inkscape:window-maximized="1"
   inkscape:current-layer="Capa_1" />

<path
   style="fill:#006bc0"
   d="m 371.984,0 -29.226,338.923 c -43.311,33.604 -97.698,53.603 -156.766,53.603 -59.068,0 -113.455,-19.999 -156.766,-53.603 L 0,0 Z"
   id="path4" />
<polygon
   transform="translate(-70.008,-119.474)"
   style="fill:#0096dc"
   points="378.269,470.777 405.545,151.338 255.997,151.338 255.997,505.296 "
   id="polygon6" />
<polygon
   transform="translate(-70.008,-119.474)"
   style="fill:#ffffff"
   points="367.999,242.89 371.981,195.746 140.013,195.746 144.072,243.811 237.189,243.811 147.845,288.484 152.002,337.723 152.002,337.723 311.376,337.723 306.152,396.366 255.997,409.95 203.752,395.321 202.446,358.75 153.778,358.75 159.866,430.848 255.997,458.015 352.127,430.848 364.039,289.779 364.036,289.787 275.85,289.787 "
   id="polygon8" />

<g
   transform="translate(-70.008,-119.474)"
   id="g18">
</g>
<g
   transform="translate(-70.008,-119.474)"
   id="g20">
</g>
<g
   transform="translate(-70.008,-119.474)"
   id="g22">
</g>
<g
   transform="translate(-70.008,-119.474)"
   id="g24">
</g>
<g
   transform="translate(-70.008,-119.474)"
   id="g26">
</g>
<g
   transform="translate(-70.008,-119.474)"
   id="g28">
</g>
<g
   transform="translate(-70.008,-119.474)"
   id="g30">
</g>
<g
   transform="translate(-70.008,-119.474)"
   id="g32">
</g>
<g
   transform="translate(-70.008,-119.474)"
   id="g34">
</g>
<g
   transform="translate(-70.008,-119.474)"
   id="g36">
</g>
<g
   transform="translate(-70.008,-119.474)"
   id="g38">
</g>
<g
   transform="translate(-70.008,-119.474)"
   id="g40">
</g>
<g
   transform="translate(-70.008,-119.474)"
   id="g42">
</g>
<g
   transform="translate(-70.008,-119.474)"
   id="g44">
</g>
<g
   transform="translate(-70.008,-119.474)"
   id="g46">
</g>
</svg>
