<svg xmlns="http://www.w3.org/2000/svg" viewBox="0 0 513 513"><defs><style>.cls-1{fill:#fff;stroke:#000;stroke-miterlimit:10;}.cls-2{fill:#5382a1;}.cls-3{fill:#f8981d;}</style></defs><g id="Layer_2" data-name="Layer 2"><g id="Layer_1-2" data-name="Layer 1"><circle class="cls-1" cx="256.5" cy="256.5" r="256"/><g id="_181-java" data-name="181-java"><path class="cls-2" d="M330.36,305.35c8.41-5.75,20.09-10.73,20.09-10.73s-33.23,6-66.28,8.76c-40.44,3.34-83.89,4-105.69,1.11-51.6-6.87,28.33-25.84,28.33-25.84s-31-2.06-69.2,16.31C92.53,316.77,249.22,326.73,330.36,305.35Z"/><path class="cls-3" d="M257,277.79c-16.32-36.66-71.35-68.86,0-125.18,89-70.23,43.35-115.91,43.35-115.91,18.46,72.55-64.9,94.53-95,139.61C184.83,207.13,215.39,240.18,257,277.79Z"/><path class="cls-3" d="M355.43,126.51c.08,0-150.42,37.6-78.56,120.37,21.2,24.38-5.58,46.36-5.58,46.36s53.83-27.81,29.1-62.59C277.3,198.2,259.61,182.06,355.43,126.51Z"/><path class="cls-2" d="M350.19,358.75a10.72,10.72,0,0,1-1.72,2.24c110.16-28.94,69.63-102.09,17-83.54a14.84,14.84,0,0,0-7,5.41,59.56,59.56,0,0,1,9.45-2.58c26.61-5.58,64.82,35.63-17.69,78.47Z"/><path class="cls-2" d="M390.71,412.24s12.45,10.22-13.65,18.2c-49.71,15-206.74,19.58-250.36.61-15.71-6.79,13.74-16.32,23-18.29,9.62-2.06,15.2-1.72,15.2-1.72-17.43-12.28-112.73,24.13-48.42,34.52,175.32,28.5,319.73-12.8,274.22-33.32Z"/><path class="cls-2" d="M198.74,376.7c-67.57,18.89,41.12,57.87,127.15,21a158.92,158.92,0,0,1-24.21-11.85c-38.38,7.3-56.15,7.82-91,3.87-28.76-3.26-11.93-13.05-11.93-13.05Z"/><path class="cls-2" d="M353.11,460.15c-67.57,12.71-150.94,11.25-200.31,3.09,0-.08,10.14,8.33,62.16,11.68,79.16,5.06,200.74-2.84,203.57-40.27,0,0-5.49,14.17-65.42,25.5Z"/><path class="cls-2" d="M315.68,339.78c-50.83,9.79-80.28,9.53-117.46,5.67-28.76-3-10-16.92-10-16.92-74.52,24.73,41.39,52.72,145.53,22.24A51.94,51.94,0,0,1,315.68,339.78Z"/></g></g></g></svg>