<svg xmlns="http://www.w3.org/2000/svg" viewBox="0 0 512 512"><defs><style>.cls-1{fill:#fff;}.cls-2{fill:#a6a385;}.cls-3{fill:#499d4a;}.cls-4{fill:#58aa50;}</style></defs><g id="Layer_2" data-name="Layer 2"><g id="Layer_1-2" data-name="Layer 1"><circle class="cls-1" cx="256" cy="256" r="256"/><path class="cls-1" d="M266.42,482.23l-12.17-4.05s1.35-61.5-20.61-65.9c-14.53-16.89,2.36-722.79,55.08-2.36,0,0-18.25,9.12-21.29,24.67-3.38,15.2-1,47.64-1,47.64Z"/><path class="cls-2" d="M266.42,482.23l-12.17-4.05s1.35-61.5-20.61-65.9c-14.53-16.89,2.36-722.79,55.08-2.36,0,0-18.25,9.12-21.29,24.67-3.38,15.2-1,47.64-1,47.64Z"/><path class="cls-1" d="M272.84,422.76S378.26,353.49,353.6,209.2C329.94,104.45,273.51,70,267.43,56.8c-6.76-9.46-13.18-26-13.18-26l4.39,291.62c.34.68-8.78,89.55,14.2,100.36"/><path class="cls-3" d="M272.84,422.76S378.26,353.49,353.6,209.2C329.94,104.45,273.51,70,267.43,56.8c-6.76-9.46-13.18-26-13.18-26l4.39,291.62c.34.68-8.78,89.55,14.2,100.36"/><path class="cls-1" d="M248.17,426.81s-99-67.58-93.27-186.52S230.26,62.88,243.78,52.07c9.12-9.46,9.46-12.84,10.13-22.3C260,43,259,227.45,259.66,249.41c2.7,83.46-4.73,161.52-11.49,177.4Z"/><path class="cls-4" d="M248.17,426.81s-99-67.58-93.27-186.52S230.26,62.88,243.78,52.07c9.12-9.46,9.46-12.84,10.13-22.3C260,43,259,227.45,259.66,249.41c2.7,83.46-4.73,161.52-11.49,177.4Z"/></g></g></svg>