<svg xmlns="http://www.w3.org/2000/svg" viewBox="0 0 512 512"><defs><style>.cls-1{fill:#fff;}.cls-2{fill:#539e43;}</style></defs><g id="Layer_2" data-name="Layer 2"><g id="Layer_1-2" data-name="Layer 1"><circle class="cls-1" cx="256" cy="256" r="256"/><g id="_233-node-js" data-name="233-node-js"><path class="cls-2" d="M255.91,486a35.67,35.67,0,0,1-17.71-4.75l-56.32-33.31c-8.4-4.75-4.29-6.39-1.55-7.31,11.23-3.92,13.51-4.74,25.46-11.59a4.1,4.1,0,0,1,4.2.37l43.27,25.65a5.29,5.29,0,0,0,5.2,0l168.59-97.31a5.39,5.39,0,0,0,2.56-4.56V158.58a5.42,5.42,0,0,0-2.65-4.65L258.46,56.72a5.24,5.24,0,0,0-5.2,0L84.85,154a5.33,5.33,0,0,0-2.65,4.65V353.19a5,5,0,0,0,2.65,4.47L131,384.32c25.1,12.5,40.44-2.2,40.44-17.07v-192a4.83,4.83,0,0,1,4.93-4.84h21.35a4.89,4.89,0,0,1,4.93,4.84V367.34c0,33.41-18.25,52.57-49.93,52.57-9.76,0-17.43,0-38.79-10.58L69.79,383.86A35.51,35.51,0,0,1,52.08,353.1V158.58a35.62,35.62,0,0,1,17.71-30.76L238.2,30.52a37,37,0,0,1,35.42,0l168.59,97.39a35.51,35.51,0,0,1,17.71,30.76V353.19A35.72,35.72,0,0,1,442.21,384l-168.59,97.3A35.48,35.48,0,0,1,255.91,486ZM392,294.22c0-36.42-24.65-46.09-76.4-52.94-52.4-6.94-57.69-10.5-57.69-22.73,0-10.13,4.47-23.64,43.26-23.64,34.6,0,47.38,7.49,52.67,30.86a4.89,4.89,0,0,0,4.75,3.83h21.91a4.8,4.8,0,0,0,3.56-1.55,5.12,5.12,0,0,0,1.27-3.75c-3.37-40.25-30.12-59-84.16-59-48.1,0-76.76,20.26-76.76,54.31,0,36.88,28.57,47.1,74.66,51.66,55.23,5.39,59.52,13.51,59.52,24.37,0,18.81-15.15,26.84-50.66,26.84-44.64,0-54.4-11.23-57.69-33.41a4.83,4.83,0,0,0-4.84-4.1H223.6a4.81,4.81,0,0,0-4.84,4.83c0,28.39,15.43,62.26,89.27,62.26,53.31-.09,84-21.18,84-57.88Z"/></g></g></g></svg>