<svg xmlns="http://www.w3.org/2000/svg" viewBox="0 0 512 512"><defs><style>.cls-1{fill:#fff;}.cls-2{fill:#336791;}</style></defs><g id="Layer_2" data-name="Layer 2"><g id="Layer_1-2" data-name="Layer 1"><circle class="cls-1" cx="256" cy="256" r="256"/><path class="cls-2" d="M344.93,52.43a182.33,182.33,0,0,0-48.18,6.84l-1.1.34a195.72,195.72,0,0,0-29.9-2.8c-20.6-.34-38.29,4.51-52.56,12.59-14.06-4.74-43.23-12.9-74-11.27-21.4,1.14-44.76,7.45-62.07,25.18s-26.39,45.16-24.47,82.48c.53,10.29,3.55,27.09,8.57,48.84s12.07,47.21,20.86,70.43,18.43,44.11,33.49,58.29c7.52,7.11,17.87,13.08,30.07,12.59,8.57-.34,16.32-4,23-9.37,3.25,4.16,6.73,6,9.9,7.65a48.71,48.71,0,0,0,11.89,4.52,85.24,85.24,0,0,0,34.06,1.69,65.67,65.67,0,0,0,15.3-4.58c.19,5.6.42,11.08.65,16.63.71,17.57,1.17,33.81,6.61,48,.87,2.32,3.27,14.3,12.71,24.87s27.94,17.18,49,12.81c14.86-3.09,33.77-8.65,46.32-26,12.42-17.14,18-41.72,19.11-81.58.28-2.16.62-4,1-5.7l2.95.25h.35c15.86.7,33.07-1.49,47.44-8,12.73-5.72,22.36-11.5,29.38-21.77a21.4,21.4,0,0,0,4.19-10.9c.53-5.3-2.6-13.58-7.8-17.39-10.4-7.67-16.94-4.75-23.95-3.34a112.54,112.54,0,0,1-21,2.47c20.21-33,34.71-68.11,43-99.15,4.9-18.32,7.64-35.22,7.87-50s-1-27.85-10.14-39.17c-28.52-35.35-68.62-45.12-99.64-45.46-1,0-1.92,0-2.88,0Zm-.83,10.86c29.35-.27,66.84,7.72,93.75,41.09,6,7.49,7.85,18.45,7.64,32s-2.8,29.63-7.5,47.33c-9.13,34.26-26.37,74.21-50.66,110.06a13.75,13.75,0,0,0,2.76,1.46c5.07,2,16.63,3.78,39.7-.82,5.8-1.18,10-2,14.46,1.28a8.71,8.71,0,0,1,3.2,7.21,11.75,11.75,0,0,1-2.28,5.7c-4.45,6.49-13.25,12.65-24.53,17.72-10,4.52-24.3,6.87-37,7-6.36.07-12.24-.41-17.22-1.92l-.32-.12c-1.92,18-6.35,53.49-9.23,69.69-2.31,13.07-6.35,23.45-14.06,31.22s-18.59,12.45-33.24,15.5c-18.15,3.79-31.39-.29-39.92-7.26s-12.42-16.18-14.76-21.83c-1.61-3.9-2.45-9-3.25-15.71s-1.4-15-1.8-24.33q-.81-21.39-.53-42.8a54.16,54.16,0,0,1-27.13,12.9A73.81,73.81,0,0,1,193,347.1a40.71,40.71,0,0,1-9.1-3.41c-3-1.54-5.8-3.29-7.69-6.74a9.27,9.27,0,0,1-1-6.46,10.34,10.34,0,0,1,3.81-5.61c3.47-2.74,8.05-4.26,15-5.65,12.57-2.51,17-4.23,19.63-6.28,2.28-1.76,4.85-5.33,9.39-10.55,0-.23,0-.46-.05-.7a53,53,0,0,1-23.26-6.07c-2.62,2.68-16,16.42-32.35,35.49-6.87,8-14.46,12.55-22.47,12.87s-15.24-3.57-21.4-9.36c-12.29-11.59-22.1-31.52-30.65-54.05S77.3,233,72.37,211.59,64.5,173,64.08,164.67c-1.83-35.32,6.68-59.12,21.28-74.14S120,69.84,139.55,68.75c35.06-2,68.36,9.91,75.09,12.45,13-8.55,29.69-13.87,50.57-13.53a132.81,132.81,0,0,1,29.39,3.69l.35-.15a125.68,125.68,0,0,1,12.92-3.63,173.66,173.66,0,0,1,36.22-4.26Zm2.66,11.37h-2.55a157,157,0,0,0-29.8,3.25,130.5,130.5,0,0,1,49.84,38.17A142.17,142.17,0,0,1,384,148.65a75,75,0,0,1,3.95,11.2,21.74,21.74,0,0,1,.7,4,7.15,7.15,0,0,1-.21,2.45,1.07,1.07,0,0,1-.1.22c.52,14.86-3.27,24.93-3.73,39.12-.34,10.28,2.37,22.35,3,35.54.63,12.38-.91,26-9.2,39.33.7.82,1.33,1.63,2,2.45,21.92-33.51,37.73-70.57,46.16-102.18,4.51-17,6.91-32.43,7.12-44.65s-2.17-21.07-5.16-24.76c-23.47-29.11-55.22-36.53-81.84-36.73ZM263,79c-20.66,0-35.49,6.11-46.74,15.18-11.59,9.38-19.37,22.22-24.48,35.37a146.78,146.78,0,0,0-9,40.95l.23-.13a92,92,0,0,1,23.22-8.76c8.78-2,18.24-2.56,26.81.67s15.65,10.8,18.22,22.3c12.31,55.26-3.83,75.8-9.78,91.3a160.64,160.64,0,0,0-5.78,17.19,17.87,17.87,0,0,1,2.25-.44,19.62,19.62,0,0,1,9.44,1.83c6,2.41,10.09,7.46,12.32,13.23a23.5,23.5,0,0,1,1.24,4.82,5.85,5.85,0,0,1,.35,2.15q-1,31.71.22,63.42c.41,9.12,1,17.16,1.75,23.51s1.82,11.14,2.5,12.77c2.24,5.43,5.51,12.54,11.42,17.37s14.39,8,29.88,4.82c13.43-2.8,21.72-6.68,27.27-12.26s8.83-13.35,10.94-25.25c3.17-17.81,9.53-69.46,10.3-79.19-.35-7.32.77-13,3.18-17.25a20.43,20.43,0,0,1,9.66-8.56,32.36,32.36,0,0,1,4.49-1.58q-2-2.83-4.25-5.52A75.25,75.25,0,0,1,357,268.3q-2.1-4.17-4.49-8.19c-2.33-4.07-5.26-9.16-8.34-14.88-6.16-11.45-12.85-25.33-16.33-38.85s-4-27.48,4.91-37.34c7.87-8.75,21.68-12.38,42.42-10.34-.61-1.79-1-3.26-2-5.64A132.16,132.16,0,0,0,355,123.14c-17.57-21.8-46-43.41-90-44.11h-2Zm-116.14.88c-2.22,0-4.44.07-6.64.19-17.66,1-34.36,6-46.3,18.23S74.09,130.72,75.8,164.06c.33,6.31,3.16,24,8,45s11.71,45.71,20,67.55,18.29,40.83,27.8,49.82c4.79,4.5,9,6.31,12.73,6.16s8.36-2.29,13.93-8.79q15.26-17.85,31.65-34.74a58.38,58.38,0,0,1-20.4-53.44,204.64,204.64,0,0,0,1.83-33.52c-.21-9-.87-15-.87-18.78v-.41l0-.1v0a163.36,163.36,0,0,1,10.35-57.27c4.9-12.62,12.19-25.44,23.12-35.82-10.74-3.43-29.8-8.66-50.43-9.64-2.21-.11-4.43-.17-6.64-.17Zm216.79,89.6c-11.87.16-18.53,3.13-22,7-4.95,5.51-5.42,15.18-2.34,27.09s9.39,25.26,15.33,36.34c3,5.55,5.86,10.53,8.19,14.59a102,102,0,0,1,5.1,9.41,54.19,54.19,0,0,0,3.12,6.15c4.59-9.42,5.42-18.67,4.94-28.3-.61-11.93-3.46-24.12-3-36.47.47-14.44,3.41-23.84,3.67-35A105.54,105.54,0,0,0,363.65,169.48Zm-144,2a50.77,50.77,0,0,0-10.77,1.25,82.92,82.92,0,0,0-20.16,7.62,41.62,41.62,0,0,0-6.1,3.87l-.39.33c.11,2.48.62,8.49.83,17.33a216.29,216.29,0,0,1-2,35.35c-4.18,29,17.52,53,43,53.06,1.49-5.95,3.94-12,6.39-18.35,7.1-18.56,21.07-32.1,9.3-84.93-1.92-8.65-5.74-12.14-11-14.11A26.42,26.42,0,0,0,219.67,171.44Zm138.44,3.46H359a15.46,15.46,0,0,1,3.14.37,7.36,7.36,0,0,1,2.42.93,2.8,2.8,0,0,1,1.31,1.87l0,.13h0a4,4,0,0,1-.61,2.29A11.42,11.42,0,0,1,363.3,183a12,12,0,0,1-6.75,3.6,11,11,0,0,1-9.44-3.75,4.46,4.46,0,0,1-1.1-2.16,2.82,2.82,0,0,1,.74-2.17,6.71,6.71,0,0,1,2-1.53,20,20,0,0,1,6.52-2,21.33,21.33,0,0,1,2.8-.22Zm-136.74,2.85a20.89,20.89,0,0,1,2.9.22,19.43,19.43,0,0,1,6.88,2.07,8,8,0,0,1,2.32,1.79,3.72,3.72,0,0,1,.95,2.89,5.09,5.09,0,0,1-1.32,2.61,11,11,0,0,1-2.5,2.21,11.44,11.44,0,0,1-7.83,1.91,12.84,12.84,0,0,1-7.34-3.86,12,12,0,0,1-2.07-2.79,4.61,4.61,0,0,1-.71-3c.26-1.83,1.81-2.78,3.34-3.31a15.93,15.93,0,0,1,5.36-.68ZM379.79,302.31l-.05,0c-2.57.9-4.68,1.27-6.47,2a7.81,7.81,0,0,0-4.18,3.63c-1.1,1.95-2,5.41-1.76,11.29a9,9,0,0,0,2.58,1.19,50.47,50.47,0,0,0,13.61,1.38c11.15-.12,24.88-2.65,32.17-5.94a69.49,69.49,0,0,0,16.49-10.43h0c-24.35,4.88-38.12,3.58-46.56.2a23.45,23.45,0,0,1-5.81-3.39Zm-140.43,1.6H239c-.93.08-2.28.39-4.88,3.19-6.09,6.61-8.22,10.77-13.24,14.65s-11.54,5.94-24.57,8.54a34.27,34.27,0,0,0-8.06,2.44,4.55,4.55,0,0,0,1.23.9,29.29,29.29,0,0,0,6.33,2.41c5.59,1.36,14.79,2.93,24.39,1.36s19.58-6.06,28.1-17.65c1.47-2,1.63-4.95.42-8.12s-3.9-5.91-5.79-6.67a11.61,11.61,0,0,0-3.57-1Z"/></g></g></svg>