<?xml version="1.0" encoding="UTF-8" standalone="no"?>
<svg
   xmlns:dc="http://purl.org/dc/elements/1.1/"
   xmlns:cc="http://creativecommons.org/ns#"
   xmlns:rdf="http://www.w3.org/1999/02/22-rdf-syntax-ns#"
   xmlns:svg="http://www.w3.org/2000/svg"
   xmlns="http://www.w3.org/2000/svg"
   xmlns:xlink="http://www.w3.org/1999/xlink"
   xmlns:sodipodi="http://sodipodi.sourceforge.net/DTD/sodipodi-0.dtd"
   xmlns:inkscape="http://www.inkscape.org/namespaces/inkscape"
   width="209.6022mm"
   height="295.62143mm"
   viewBox="0 0 209.6022 295.62143"
   version="1.1"
   id="svg1775"
   inkscape:version="1.0 (4035a4fb49, 2020-05-01)"
   sodipodi:docname="brain_bulb.svg">
  <defs
     id="defs1769">
    <radialGradient
       inkscape:collect="always"
       xlink:href="#linearGradient915"
       id="radialGradient919"
       cx="-3.5527137e-15"
       cy="-78.595497"
       fx="-3.5527137e-15"
       fy="-78.595497"
       r="60.824001"
       gradientTransform="matrix(1,0,0,1.2921791,0,22.96396)"
       gradientUnits="userSpaceOnUse" />
    <linearGradient
       inkscape:collect="always"
       id="linearGradient915">
      <stop
         style="stop-color:#ffdd55;stop-opacity:1;"
         offset="0"
         id="stop911" />
      <stop
         style="stop-color:#ffdd55;stop-opacity:0;"
         offset="1"
         id="stop913" />
    </linearGradient>
    <radialGradient
       inkscape:collect="always"
       xlink:href="#linearGradient915"
       id="radialGradient933"
       cx="-3.5527137e-15"
       cy="-78.595497"
       fx="-3.5527137e-15"
       fy="-78.595497"
       r="60.824001"
       gradientTransform="matrix(1,0,0,1.2921791,0,22.96396)"
       gradientUnits="userSpaceOnUse" />
    <radialGradient
       r="60.824001"
       fy="-78.595497"
       fx="-3.5527137e-15"
       cy="-78.595497"
       cx="-3.5527137e-15"
       gradientTransform="matrix(1,0,0,1.2921791,0,22.96396)"
       gradientUnits="userSpaceOnUse"
       id="radialGradient943"
       xlink:href="#linearGradient915"
       inkscape:collect="always" />
  </defs>
  <sodipodi:namedview
     id="base"
     pagecolor="#ffffff"
     bordercolor="#666666"
     borderopacity="1.0"
     inkscape:pageopacity="0.0"
     inkscape:pageshadow="2"
     inkscape:zoom="0.7"
     inkscape:cx="302.76432"
     inkscape:cy="568.61873"
     inkscape:document-units="mm"
     inkscape:current-layer="layer1"
     inkscape:document-rotation="0"
     showgrid="false"
     inkscape:window-width="1920"
     inkscape:window-height="1000"
     inkscape:window-x="-11"
     inkscape:window-y="-11"
     inkscape:window-maximized="1" />
  <metadata
     id="metadata1772">
    <rdf:RDF>
      <cc:Work
         rdf:about="">
        <dc:format>image/svg+xml</dc:format>
        <dc:type
           rdf:resource="http://purl.org/dc/dcmitype/StillImage" />
        <dc:title />
      </cc:Work>
    </rdf:RDF>
  </metadata>
  <g
     inkscape:label="Layer 1"
     inkscape:groupmode="layer"
     id="layer1"
     transform="translate(0.29068229,-0.54494946)">
    <path
       style="fill:#ffcc00;stroke-width:0.377976"
       d="m 88.758014,242.79821 c -0.09066,-0.25985 -4.003579,-13.4843 -8.695383,-29.38764 -4.6918,-15.90335 -8.614579,-29.1931 -8.717287,-29.53277 -0.12491,-0.41309 0.09868,-0.68992 0.675251,-0.83607 1.724474,-0.4371 6.700477,-4.08197 9.043958,-6.6246 4.297868,-4.66311 6.731833,-9.89797 7.50865,-16.14927 0.517702,-4.16612 0.106344,-5.65587 -1.779297,-6.44374 -2.755886,-1.15148 -5.022757,0.69448 -5.034465,4.09967 -0.02037,5.93 -3.957709,13.11826 -9.132781,16.67345 -4.34389,2.98419 -12.565089,4.3812 -18.440596,3.13356 -5.465738,-1.16062 -11.212878,-4.66904 -14.419908,-8.80281 -2.31985,-2.99022 -3.09553,-4.36174 -4.34249,-7.67814 -0.97772,-2.60034 -1.06554,-3.25688 -1.06177,-7.9375 0.004,-4.96765 0.29783,-6.61512 1.82546,-10.23532 0.19327,-0.45802 -0.12559,-0.7084 -1.37019,-1.07591 -8.27037,-2.44208 -14.16628,-10.96294 -13.38705,-19.34715 0.45299,-4.874 3.04204,-9.95221 6.17184,-12.10557 2.00495,-1.37944 5.27694,-2.59236 7.0011,-2.5953 1.96209,-0.003 4.0003,-0.7117 4.62851,-1.60858 0.96743,-1.38121 0.73317,-3.20609 -0.58016,-4.51941 -1.13479,-1.13479 -1.21365,-1.15358 -3.89244,-0.92714 -3.6442,0.30805 -7.09186,1.41653 -10.07412,3.239 -2.86193,1.74894 -2.7088,1.82709 -4.76486,-2.43167 -5.54451,-11.484434 -0.74168,-26.313245 10.45541,-32.281232 1.239,-0.660381 2.25273,-1.25499 2.25273,-1.321355 0,-0.06637 -0.25134,-0.722186 -0.55852,-1.457378 -0.30718,-0.735195 -0.74066,-2.510671 -0.96328,-3.945501 -1.76798,-11.394906 8.49791,-22.212385 20.04263,-21.119523 1.351265,0.127913 2.890217,0.330083 3.419892,0.449265 0.894236,0.201213 1.081016,-0.02138 2.614152,-3.115373 2.300734,-4.643078 6.443053,-8.801926 10.979573,-11.023381 4.320699,-2.115774 6.974266,-2.748732 11.523585,-2.748732 6.816085,0 12.579983,2.30655 17.409416,6.966759 l 2.81231,2.713765 v 15.135045 c 0,10.959896 -0.1207,15.255751 -0.43755,15.5726 -0.33142,0.331417 -0.33109,0.565827 0.002,0.966393 0.32899,0.396412 0.43698,14.734527 0.43125,57.257088 l -0.008,56.72825 -1.3556,1.1174 c -4.459685,3.67605 -10.879656,5.11705 -16.408294,3.68294 -1.136431,-0.29479 -2.11278,-0.48943 -2.169666,-0.43254 -0.05689,0.0569 3.727371,13.05521 8.409459,28.88517 4.682093,15.82996 8.512891,28.95139 8.512891,29.15873 0,0.58709 -7.920394,0.49403 -8.12606,-0.0955 z m -28.250448,-88.7159 c 4.025503,-1.90438 7.20489,-5.75777 8.393858,-10.17326 0.427342,-1.58703 0.482542,-1.63374 1.644709,-1.39174 4.364429,0.90882 7.603225,0.51887 11.344462,-1.36585 7.198453,-3.62635 10.380398,-12.70455 7.077305,-20.19176 l -0.682744,-1.54759 1.748121,-1.28766 c 0.961464,-0.70822 2.458738,-2.34756 3.32727,-3.64299 4.126327,-6.15449 3.306897,-14.3421 -1.963547,-19.619572 -4.45172,-4.45765 -10.900841,-5.788097 -16.99833,-3.506735 -2.91645,1.091184 -4.350904,2.494296 -4.350904,4.255839 0,1.843151 0.306732,2.46058 1.538938,3.097778 1.440577,0.744951 2.487192,0.695976 3.909275,-0.182922 4.366537,-2.698665 10.210239,-1.082511 12.467976,3.448192 2.462646,4.94188 3.7e-5,10.53575 -5.442974,12.36382 -3.590486,1.20589 -4.37247,3.72906 -2.022935,6.52727 1.892247,2.2536 2.762287,4.3185 2.762287,6.55586 0,4.73209 -3.901422,8.51635 -8.759206,8.49616 -3.295314,-0.0137 -5.543841,-1.35703 -7.827664,-4.67646 -4.354583,-6.32917 -12.920228,-8.60358 -19.923867,-5.29034 -3.14934,1.48988 -4.23149,3.43131 -3.09842,5.55873 1.07461,2.01766 2.94013,2.27367 6.04284,0.82929 5.132261,-2.3892 10.987289,0.25484 12.4666,5.62971 0.535681,1.94631 -0.04097,5.08259 -1.271508,6.91543 -0.98275,1.46377 -3.854169,3.51515 -4.920337,3.51515 -1.262861,0 -2.929932,2.03631 -2.929932,3.57888 0,3.24298 3.172772,4.1371 7.468727,2.10477 z m 1.473139,-42.03183 c 3.948097,-1.46143 5.723983,-3.36829 5.230297,-5.61603 -0.303745,-1.38293 -1.836685,-2.63698 -3.223446,-2.63698 -0.574516,0 -2.014609,0.51027 -3.200206,1.13393 -7.592865,3.99408 -15.714894,-3.50021 -12.132224,-11.194537 0.99321,-2.133063 2.5031,-3.46929 5.251237,-4.647282 2.357022,-1.010337 3.219971,-2.722747 2.382345,-4.727463 -0.613251,-1.467715 -1.573715,-2.109293 -3.157688,-2.109293 -2.909614,0 -6.459704,-2.24314 -7.871794,-4.973833 -0.32959,-0.637363 -0.69015,-2.039451 -0.80123,-3.115747 -0.26718,-2.588704 0.92737,-5.432681 3.04222,-7.242916 2.49561,-2.13615 3.54906,-2.295194 9.709927,-1.465968 2.56721,0.345535 3.315946,-0.430893 3.952949,-4.099129 0.890606,-5.128633 3.002915,-8.22266 7.076379,-10.365211 1.777331,-0.934836 2.39272,-1.050528 5.588058,-1.050528 3.195368,0 3.810717,0.115686 5.588133,1.050565 5.073308,2.668445 7.824782,8.052541 6.839346,13.38326 -1.084532,5.866762 -5.417147,9.714423 -11.816733,10.494071 -1.590945,0.193823 -2.478643,0.52552 -3.118305,1.165185 -2.094008,2.094003 -0.316495,5.849678 2.761967,5.835713 4.896614,-0.02223 10.095804,-2.294739 13.730711,-6.001575 5.960993,-6.078953 7.339337,-14.560499 3.604125,-22.177724 -3.374176,-6.880947 -9.85243,-10.89288 -17.589244,-10.89288 -8.632867,0 -15.862053,5.162206 -18.69717,13.351253 -0.450405,1.300959 -0.499662,1.32573 -3.484411,1.752193 -1.665152,0.237919 -3.989422,0.872942 -5.165052,1.411163 -2.97662,1.362739 -6.03404,4.369168 -7.52786,7.402306 -1.15366,2.342465 -1.22223,2.715456 -1.22223,6.648397 0,3.916286 0.0738,4.322482 1.2276,6.75872 0.82917,1.750762 1.94999,3.287996 3.4534,4.736415 l 2.2258,2.144395 -0.76814,0.93323 c -1.26447,1.536222 -2.48471,4.557041 -2.90048,7.180395 -1.84386,11.634135 9.85671,21.065045 21.011719,16.935905 z"
       id="path2500" />
    <path
       style="opacity:1;fill:#ffcc00;stroke-width:0.377976"
       d="m 110.4488,242.82498 c 0.10678,-0.36381 3.9728,-13.46149 8.59114,-29.10596 4.61834,-15.64447 8.32669,-28.51479 8.24077,-28.60071 -0.0859,-0.0859 -1.08602,0.085 -2.22245,0.37977 -5.46395,1.41733 -11.43309,0.0564 -16.35909,-3.72977 l -1.4174,-1.08945 v -13.36408 c 0,-8.91426 0.13196,-13.44565 0.39632,-13.60903 0.27345,-0.169 0.27508,-0.39105 0.005,-0.71615 -0.58722,-0.70756 -0.55217,-85.570176 0.0356,-86.278442 0.33166,-0.399624 0.33173,-0.63373 2.7e-4,-0.965147 -0.31661,-0.316603 -0.43756,-4.552135 -0.43756,-15.322899 V 35.537768 l 1.37312,-1.67571 c 2.80752,-3.426203 8.07872,-6.640983 12.94109,-7.892457 3.08488,-0.793985 8.56751,-0.807802 11.92114,-0.03004 7.24184,1.679496 13.58472,6.798795 16.78293,13.545405 1.27442,2.688389 1.47494,2.923479 2.33887,2.742081 6.74853,-1.416987 13.00516,0.175096 17.66896,4.496112 5.46982,5.067787 7.5868,13.227608 5.11192,19.70369 l -0.73074,1.912138 2.29859,1.260076 c 1.3641,0.747794 3.60871,2.58273 5.52114,4.513458 5.09119,5.139888 7.15493,10.16304 7.16621,17.442569 0.008,4.970584 -1.38783,9.86277 -3.76623,13.20292 l -0.77244,1.0848 -2.14633,-1.29245 c -4.41806,-2.66042 -10.86298,-4.20989 -13.30443,-3.1986 -1.47964,0.61289 -2.44008,2.32256 -2.12096,3.77551 0.40098,1.82565 1.60185,2.56617 4.89856,3.0207 5.41623,0.74676 8.90367,3.01007 11.15945,7.24235 3.3332,6.25373 3.04105,13.4785 -0.77621,19.19488 -2.45252,3.67269 -6.47201,6.69116 -10.17338,7.63979 l -1.71516,0.43958 1.1019,3.2584 c 0.93837,2.77485 1.10254,3.84738 1.10624,7.22716 0.005,4.75689 -0.69638,7.69017 -2.8151,11.76972 -2.92882,5.63936 -8.37646,10.28508 -14.41812,12.29569 -2.70409,0.8999 -3.71477,1.03513 -7.82959,1.04761 -3.66563,0.0111 -5.23305,-0.14944 -6.99256,-0.71627 -1.24732,-0.40183 -2.55626,-0.75905 -2.90876,-0.79382 -2.39554,-0.23631 -8.22967,-5.84415 -10.24653,-9.84911 -1.33595,-2.65283 -2.53072,-7.25497 -2.53072,-9.74806 0,-2.01734 -1.39614,-3.42162 -3.40178,-3.42162 -1.29299,0 -1.77169,0.20874 -2.54772,1.11093 -0.91166,1.05987 -0.9458,1.26794 -0.74266,4.52712 0.59561,9.55643 6.34082,18.47532 14.75157,22.90041 1.28421,0.67565 2.39714,1.27942 2.47316,1.3417 0.076,0.0623 -3.83535,13.55896 -8.69193,29.99262 l -8.83011,29.87938 h -4.09023 c -3.71745,0 -4.07254,-0.0603 -3.89607,-0.66145 z m 42.82385,-88.25744 c 1.11908,-1.24324 1.32939,-2.12904 0.85023,-3.58093 -0.36411,-1.10326 -0.82309,-1.47293 -3.13923,-2.52843 -4.0923,-1.86492 -5.9119,-4.40842 -5.89596,-8.2416 0.005,-1.10891 0.31442,-2.66867 0.69687,-3.50842 0.86009,-1.8885 3.28153,-4.10691 5.15916,-4.72658 1.9316,-0.63749 5.50388,-0.2755 7.11645,0.72113 2.84723,1.75968 5.91802,0.45173 5.91802,-2.52068 0,-1.81103 -0.94397,-2.8956 -3.55592,-4.08558 -4.14072,-1.88647 -9.18222,-1.88895 -13.29393,-0.007 -2.81581,1.28912 -4.10408,2.38493 -6.58467,5.60098 -2.80336,3.63451 -4.52323,4.55314 -8.19716,4.37831 -2.29214,-0.10907 -2.96978,-0.30727 -4.33779,-1.26874 -0.8917,-0.62671 -2.13557,-1.97133 -2.76414,-2.98803 -0.95187,-1.53961 -1.14023,-2.23252 -1.12703,-4.14605 0.0177,-2.56711 0.67233,-4.12022 2.6815,-6.36183 2.40851,-2.68716 1.46125,-5.70402 -2.16966,-6.91002 -6.45039,-2.14248 -8.35067,-10.08315 -3.49162,-14.590397 2.81481,-2.610988 6.35088,-3.084738 10.09667,-1.352704 2.83124,1.309154 3.80748,1.294314 5.18057,-0.0788 1.95461,-1.954607 1.3089,-4.300117 -1.62314,-5.895933 -6.5256,-3.551679 -13.95295,-2.421903 -19.02309,2.893613 -1.15099,1.206688 -2.54561,3.177237 -3.09915,4.378994 -0.89171,1.935927 -1.00842,2.659787 -1.02379,6.349397 -0.0165,3.95424 0.0448,4.29078 1.21543,6.66982 0.84736,1.72214 1.9961,3.2195 3.67428,4.78936 l 2.4415,2.2839 -0.81164,1.8186 c -1.12614,2.52325 -1.35721,7.19621 -0.50282,10.16861 1.66474,5.79161 6.41411,10.02517 12.51098,11.15224 2.16843,0.40085 5.53603,0.20196 7.18307,-0.42425 0.7538,-0.28659 0.85402,-0.17139 1.07991,1.24124 0.63848,3.9928 5.05116,9.29839 8.99348,10.81332 2.75467,1.05855 4.86447,1.04265 5.84262,-0.044 z m 3.04745,-42.31291 c 5.85634,-2.16815 9.72537,-7.30186 10.2039,-13.539291 0.29157,-3.800434 -0.80262,-7.36834 -3.37762,-11.013587 -0.37254,-0.527386 -0.11482,-0.924314 1.64364,-2.531446 10.26567,-9.382246 4.37255,-25.836493 -9.72488,-27.15293 -2.36103,-0.220477 -2.41056,-0.248195 -2.8381,-1.588233 -2.17504,-6.817103 -8.67154,-12.253261 -15.86203,-13.273056 -14.59788,-2.070354 -26.2615,12.119369 -21.36631,25.993818 2.42953,6.886019 9.12438,12.037695 16.60873,12.780388 2.83827,0.281654 4.16818,-0.183886 4.97336,-1.740924 1.33093,-2.573742 -0.23905,-4.687869 -3.78563,-5.097685 -5.09583,-0.588846 -9.43603,-3.833148 -11.12864,-8.318666 -0.6847,-1.81451 -0.81922,-2.7911 -0.68454,-4.969439 0.65398,-10.577398 13.15028,-15.680121 21.03628,-8.589928 2.33268,2.097283 3.73226,4.872834 4.13217,8.194617 0.41788,3.471108 1.42576,4.588039 3.84264,4.25841 4.70807,-0.642117 5.77052,-0.649187 7.34247,-0.04885 3.27219,1.249662 5.48555,4.49901 5.50042,8.074943 0.0186,4.46904 -3.08004,7.973335 -7.61103,8.607486 -3.37141,0.471858 -4.4759,1.437772 -4.4759,3.914325 0,1.293135 1.5107,2.914219 3.02592,3.24702 1.5839,0.347882 4.34802,2.956528 5.09938,4.812551 2.31525,5.71915 -1.82099,11.972427 -7.93632,11.998327 -1.32757,0.006 -2.60286,-0.3293 -4.28617,-1.12563 -1.31795,-0.6235 -2.89901,-1.13363 -3.51346,-1.13363 -2.72064,0 -4.04737,3.87336 -2.02087,5.89987 3.14756,3.14755 10.12337,4.22199 15.20259,2.34154 z"
       id="path2502" />
    <path
       style="fill:#2b1100;stroke-width:0.377976"
       d="m 77.607294,295.28712 c -3.37016,-1.08027 -6.10586,-3.41484 -7.80348,-6.6593 l -0.88998,-1.7009 -0.10623,-21.82812 -0.10624,-21.82812 h 35.175176 35.17518 l -0.10614,22.01711 c -0.0997,20.68761 -0.14893,22.09699 -0.81468,23.34003 -1.34094,2.50373 -3.20223,4.39952 -5.59089,5.69458 l -2.39403,1.29799 -25.5134,0.0757 c -19.884086,0.059 -25.846976,-0.0312 -27.025286,-0.40894 z"
       id="path2504" />
    <g
       id="g524"
       transform="matrix(1.7230222,0,0,-1.7125082,104.7867,-11.5862)"
       style="opacity:0.504348;fill:url(#radialGradient919);fill-opacity:1">
      <path
         d="m 0,0 c 33.593,0 60.824,-27.232 60.824,-60.824 0,-16.072 -6.235,-30.684 -16.414,-41.557 v -0.006 c -10.465,-12.442 -23.832,-24.357 -23.832,-39.373 0,-15.009 -20.563,-15.431 -20.578,-15.431 -0.015,0 -20.577,0.422 -20.577,15.431 0,15.016 -13.367,26.931 -23.833,39.373 l 10e-4,0.006 c -10.18,10.874 -16.415,25.486 -16.415,41.557 C -60.824,-27.232 -33.592,0 0,0"
         style="fill:url(#radialGradient943);fill-opacity:1;fill-rule:evenodd;stroke:none"
         id="path526" />
    </g>
  </g>
</svg>
