<?xml version="1.0" encoding="UTF-8" standalone="no"?>
<svg
   xmlns:dc="http://purl.org/dc/elements/1.1/"
   xmlns:cc="http://creativecommons.org/ns#"
   xmlns:rdf="http://www.w3.org/1999/02/22-rdf-syntax-ns#"
   xmlns:svg="http://www.w3.org/2000/svg"
   xmlns="http://www.w3.org/2000/svg"
   xmlns:sodipodi="http://sodipodi.sourceforge.net/DTD/sodipodi-0.dtd"
   xmlns:inkscape="http://www.inkscape.org/namespaces/inkscape"
   sodipodi:docname="brain_bulb.svg"
   inkscape:version="1.0 (4035a4fb49, 2020-05-01)"
   id="svg1775"
   version="1.1"
   viewBox="0 0 209.6022 295.62143"
   height="295.62143mm"
   width="209.6022mm">
  <defs
     id="defs1769" />
  <sodipodi:namedview
     inkscape:window-maximized="0"
     inkscape:window-y="0"
     inkscape:window-x="157"
     inkscape:window-height="1020"
     inkscape:window-width="1741"
     showgrid="false"
     inkscape:document-rotation="0"
     inkscape:current-layer="layer1"
     inkscape:document-units="mm"
     inkscape:cy="576.28133"
     inkscape:cx="553.37332"
     inkscape:zoom="0.7"
     inkscape:pageshadow="2"
     inkscape:pageopacity="0.0"
     borderopacity="1.0"
     bordercolor="#666666"
     pagecolor="#ffffff"
     id="base" />
  <metadata
     id="metadata1772">
    <rdf:RDF>
      <cc:Work
         rdf:about="">
        <dc:format>image/svg+xml</dc:format>
        <dc:type
           rdf:resource="http://purl.org/dc/dcmitype/StillImage" />
        <dc:title />
      </cc:Work>
    </rdf:RDF>
  </metadata>
  <g
     transform="translate(0.29068229,-0.54494946)"
     id="layer1"
     inkscape:groupmode="layer"
     inkscape:label="Layer 1">
    <g
       id="g524"
       transform="matrix(1.7230222,0,0,-1.7125082,104.51042,0.54494946)"
       style="fill:#ffffff">
      <path
         d="m 0,0 c 33.593,0 60.824,-27.232 60.824,-60.824 0,-16.072 -6.235,-30.684 -16.414,-41.557 v -0.006 c -10.465,-12.442 -23.832,-24.357 -23.832,-39.373 0,-15.009 -20.563,-15.431 -20.578,-15.431 -0.015,0 -20.577,0.422 -20.577,15.431 0,15.016 -13.367,26.931 -23.833,39.373 l 10e-4,0.006 c -10.18,10.874 -16.415,25.486 -16.415,41.557 C -60.824,-27.232 -33.592,0 0,0"
         style="fill:#ffffff;fill-opacity:1;fill-rule:evenodd;stroke:none"
         id="path526" />
    </g>
    <g
       id="g528"
       transform="matrix(1.7230222,0,0,-1.7125082,114.50775,244.56575)">
      <path
         d="M 0,0 11.742,39.962"
         style="fill:none;stroke:#ec7b59;stroke-width:4.8;stroke-linecap:round;stroke-linejoin:round;stroke-miterlimit:22.926;stroke-dasharray:none;stroke-opacity:1"
         id="path530" />
    </g>
    <g
       id="g532"
       transform="matrix(1.7230222,0,0,-1.7125082,94.515527,244.56575)">
      <path
         d="M 0,0 -11.743,39.962"
         style="fill:none;stroke:#ec7b59;stroke-width:4.8;stroke-linecap:round;stroke-linejoin:round;stroke-miterlimit:22.926;stroke-dasharray:none;stroke-opacity:1"
         id="path534" />
    </g>
    <g
       id="g536"
       transform="matrix(1.7230222,0,0,-1.7125082,128.24488,75.397003)">
      <path
         d="M 0,0 C 8.137,0 14.773,6.637 14.773,14.773 14.773,22.91 8.137,29.547 0,29.547 -8.137,29.547 -14.774,22.91 -14.774,14.773 -14.774,6.637 -8.137,0 0,0"
         style="fill:#ec7b59;fill-opacity:1;fill-rule:evenodd;stroke:none"
         id="path538" />
    </g>
    <g
       id="g540"
       transform="matrix(1.7230222,0,0,-1.7125082,158.15205,79.191554)">
      <path
         d="M 0,0 C 6.104,0 11.08,4.978 11.08,11.08 11.08,17.183 6.104,22.159 0,22.159 -6.102,22.159 -11.08,17.183 -11.08,11.08 -11.08,4.978 -6.102,0 0,0"
         style="fill:#ec7b59;fill-opacity:1;fill-rule:evenodd;stroke:none"
         id="path542" />
    </g>
    <g
       id="g544"
       transform="matrix(1.7230222,0,0,-1.7125082,165.15183,116.50711)">
      <path
         d="M 0,0 C 8.137,0 14.773,6.636 14.773,14.773 14.773,22.91 8.137,29.546 0,29.546 -8.137,29.546 -14.773,22.91 -14.773,14.773 -14.773,6.636 -8.137,0 0,0"
         style="fill:#ec7b59;fill-opacity:1;fill-rule:evenodd;stroke:none"
         id="path546" />
    </g>
    <g
       id="g548"
       transform="matrix(1.7230222,0,0,-1.7125082,167.69931,143.07271)">
      <path
         d="M 0,0 C 6.102,0 11.08,4.978 11.08,11.08 11.08,17.183 6.102,22.159 0,22.159 -6.104,22.159 -11.08,17.183 -11.08,11.08 -11.08,4.978 -6.104,0 0,0"
         style="fill:#ec7b59;fill-opacity:1;fill-rule:evenodd;stroke:none"
         id="path550" />
    </g>
    <g
       id="g552"
       transform="matrix(1.7230222,0,0,-1.7125082,148.60806,178.49202)">
      <path
         d="M 0,0 C 8.137,0 14.773,6.637 14.773,14.773 14.773,22.91 8.137,29.547 0,29.547 -8.137,29.547 -14.773,22.91 -14.773,14.773 -14.773,6.637 -8.137,0 0,0"
         style="fill:#ec7b59;fill-opacity:1;fill-rule:evenodd;stroke:none"
         id="path554" />
    </g>
    <g
       id="g556"
       transform="matrix(1.7230222,0,0,-1.7125082,121.24511,186.08117)">
      <path
         d="m 0,0 c 6.102,0 11.078,4.977 11.078,11.079 0,6.103 -4.976,11.08 -11.078,11.08 -6.104,0 -11.081,-4.977 -11.081,-11.08 C -11.081,4.977 -6.104,0 0,0"
         style="fill:#ec7b59;fill-opacity:1;fill-rule:evenodd;stroke:none"
         id="path558" />
    </g>
    <g
       id="g560"
       transform="matrix(1.7230222,0,0,-1.7125082,129.51696,164.57619)">
      <path
         d="m 0,0 c 8.137,0 14.773,6.636 14.773,14.772 0,8.137 -6.636,14.774 -14.773,14.774 -8.137,0 -14.774,-6.637 -14.774,-14.774 C -14.774,6.636 -8.137,0 0,0"
         style="fill:#ec7b59;fill-opacity:1;fill-rule:evenodd;stroke:none"
         id="path562" />
    </g>
    <g
       id="g564"
       transform="matrix(1.7230222,0,0,-1.7125082,131.10871,138.64438)">
      <path
         d="m 0,0 c 8.645,0 15.695,7.051 15.695,15.696 0,8.646 -7.05,15.697 -15.695,15.697 -8.646,0 -15.698,-7.051 -15.698,-15.697 C -15.698,7.051 -8.646,0 0,0"
         style="fill:#ec7b59;fill-opacity:1;fill-rule:evenodd;stroke:none"
         id="path566" />
    </g>
    <g
       id="g568"
       transform="matrix(1.7230222,0,0,-1.7125082,127.60872,109.55005)">
      <path
         d="M 0,0 C 8.34,0 15.141,6.803 15.141,15.143 15.141,23.482 8.34,30.285 0,30.285 -8.342,30.285 -15.143,23.482 -15.143,15.143 -15.143,6.803 -8.342,0 0,0"
         style="fill:#ec7b59;fill-opacity:1;fill-rule:evenodd;stroke:none"
         id="path570" />
    </g>
    <g
       id="g572"
       transform="matrix(1.7230222,0,0,-1.7125082,80.808676,75.397003)">
      <path
         d="M 0,0 C 8.137,0 14.773,6.637 14.773,14.773 14.773,22.91 8.137,29.547 0,29.547 -8.137,29.547 -14.773,22.91 -14.773,14.773 -14.773,6.637 -8.137,0 0,0"
         style="fill:#ec7b59;fill-opacity:1;fill-rule:evenodd;stroke:none"
         id="path574" />
    </g>
    <g
       id="g576"
       transform="matrix(1.7230222,0,0,-1.7125082,50.899803,79.191554)">
      <path
         d="M 0,0 C 6.103,0 11.079,4.978 11.079,11.08 11.079,17.183 6.103,22.159 0,22.159 -6.103,22.159 -11.08,17.183 -11.08,11.08 -11.08,4.978 -6.103,0 0,0"
         style="fill:#ec7b59;fill-opacity:1;fill-rule:evenodd;stroke:none"
         id="path578" />
    </g>
    <g
       id="g580"
       transform="matrix(1.7230222,0,0,-1.7125082,43.898266,116.50711)">
      <path
         d="M 0,0 C 8.138,0 14.773,6.636 14.773,14.773 14.773,22.91 8.138,29.546 0,29.546 -8.137,29.546 -14.772,22.91 -14.772,14.773 -14.772,6.636 -8.137,0 0,0"
         style="fill:#ec7b59;fill-opacity:1;fill-rule:evenodd;stroke:none"
         id="path582" />
    </g>
    <g
       id="g584"
       transform="matrix(1.7230222,0,0,-1.7125082,41.354254,143.07271)">
      <path
         d="M 0,0 C 6.102,0 11.079,4.978 11.079,11.08 11.079,17.183 6.102,22.159 0,22.159 -6.103,22.159 -11.08,17.183 -11.08,11.08 -11.08,4.978 -6.103,0 0,0"
         style="fill:#ec7b59;fill-opacity:1;fill-rule:evenodd;stroke:none"
         id="path586" />
    </g>
    <g
       id="g588"
       transform="matrix(1.7230222,0,0,-1.7125082,60.445499,178.49202)">
      <path
         d="M 0,0 C 8.137,0 14.773,6.637 14.773,14.773 14.773,22.91 8.137,29.547 0,29.547 -8.137,29.547 -14.773,22.91 -14.773,14.773 -14.773,6.637 -8.137,0 0,0"
         style="fill:#ec7b59;fill-opacity:1;fill-rule:evenodd;stroke:none"
         id="path590" />
    </g>
    <g
       id="g592"
       transform="matrix(1.7230222,0,0,-1.7125082,87.808455,186.08117)">
      <path
         d="m 0,0 c 6.103,0 11.08,4.977 11.08,11.079 0,6.103 -4.977,11.08 -11.08,11.08 -6.103,0 -11.079,-4.977 -11.079,-11.08 C -11.079,4.977 -6.103,0 0,0"
         style="fill:#ec7b59;fill-opacity:1;fill-rule:evenodd;stroke:none"
         id="path594" />
    </g>
    <g
       id="g596"
       transform="matrix(1.7230222,0,0,-1.7125082,79.536596,164.57619)">
      <path
         d="m 0,0 c 8.137,0 14.773,6.636 14.773,14.772 0,8.137 -6.636,14.774 -14.773,14.774 -8.137,0 -14.773,-6.637 -14.773,-14.774 C -14.773,6.636 -8.137,0 0,0"
         style="fill:#ec7b59;fill-opacity:1;fill-rule:evenodd;stroke:none"
         id="path598" />
    </g>
    <g
       id="g600"
       transform="matrix(1.7230222,0,0,-1.7125082,77.94485,138.64438)">
      <path
         d="m 0,0 c 8.646,0 15.696,7.051 15.696,15.696 0,8.646 -7.05,15.697 -15.696,15.697 -8.646,0 -15.696,-7.051 -15.696,-15.697 C -15.696,7.051 -8.646,0 0,0"
         style="fill:#ec7b59;fill-opacity:1;fill-rule:evenodd;stroke:none"
         id="path602" />
    </g>
    <g
       id="g604"
       transform="matrix(1.7230222,0,0,-1.7125082,81.444837,109.55005)">
      <path
         d="M 0,0 C 8.34,0 15.142,6.803 15.142,15.143 15.142,23.482 8.34,30.285 0,30.285 -8.34,30.285 -15.143,23.482 -15.143,15.143 -15.143,6.803 -8.34,0 0,0"
         style="fill:#ec7b59;fill-opacity:1;fill-rule:evenodd;stroke:none"
         id="path606" />
    </g>
    <g
       id="g608"
       transform="matrix(1.7230222,0,0,-1.7125082,74.953156,78.373838)">
      <path
         d="m 0,0 c 5.195,0 9.406,4.211 9.406,9.406 0,5.195 -4.211,9.407 -9.406,9.407 -5.195,0 -9.406,-4.212 -9.406,-9.407"
         style="fill:none;stroke:#ffffff;stroke-width:3.84;stroke-linecap:round;stroke-linejoin:round;stroke-miterlimit:22.926;stroke-dasharray:none;stroke-opacity:1"
         id="path610" />
    </g>
    <g
       id="g612"
       transform="matrix(1.7230222,0,0,-1.7125082,58.675284,62.06151)">
      <path
         d="m 0,0 c -0.79,0.303 -1.647,0.468 -2.544,0.468 -3.936,0 -7.128,-3.192 -7.128,-7.128 0,-3.936 3.192,-7.127 7.128,-7.127"
         style="fill:none;stroke:#ffffff;stroke-width:3.84;stroke-linecap:round;stroke-linejoin:round;stroke-miterlimit:22.926;stroke-dasharray:none;stroke-opacity:1"
         id="path614" />
    </g>
    <g
       id="g616"
       transform="matrix(1.7230222,0,0,-1.7125082,54.292046,85.672018)">
      <path
         d="m 0,0 c -0.814,-0.23 -1.602,-0.61 -2.32,-1.146 -3.158,-2.352 -3.809,-6.818 -1.457,-9.974 2.352,-3.157 6.818,-3.809 9.974,-1.456"
         style="fill:none;stroke:#ffffff;stroke-width:3.84;stroke-linecap:round;stroke-linejoin:round;stroke-miterlimit:22.926;stroke-dasharray:none;stroke-opacity:1"
         id="path618" />
    </g>
    <g
       id="g620"
       transform="matrix(1.7230222,0,0,-1.7125082,74.492092,95.768105)">
      <path
         d="m 0,0 c 0.7,0.476 1.498,0.833 2.371,1.038 3.831,0.901 7.668,-1.475 8.569,-5.307 0.902,-3.832 -1.474,-7.669 -5.306,-8.57"
         style="fill:none;stroke:#ffffff;stroke-width:3.84;stroke-linecap:round;stroke-linejoin:round;stroke-miterlimit:22.926;stroke-dasharray:none;stroke-opacity:1"
         id="path622" />
    </g>
    <g
       id="g624"
       transform="matrix(1.7230222,0,0,-1.7125082,83.723004,118.10265)">
      <path
         d="m 0,0 c 0.641,-0.553 1.193,-1.23 1.618,-2.02 1.866,-3.465 0.569,-7.789 -2.897,-9.654 -3.467,-1.866 -7.789,-0.568 -9.655,2.898"
         style="fill:none;stroke:#ffffff;stroke-width:3.84;stroke-linecap:round;stroke-linejoin:round;stroke-miterlimit:22.926;stroke-dasharray:none;stroke-opacity:1"
         id="path626" />
    </g>
    <g
       id="g628"
       transform="matrix(1.7230222,0,0,-1.7125082,47.855899,129.94296)">
      <path
         d="m 0,0 c 0.699,0.476 1.496,0.834 2.369,1.039 3.831,0.904 7.67,-1.47 8.573,-5.301 0.904,-3.832 -1.469,-7.67 -5.3,-8.574"
         style="fill:none;stroke:#ffffff;stroke-width:3.84;stroke-linecap:round;stroke-linejoin:round;stroke-miterlimit:22.926;stroke-dasharray:none;stroke-opacity:1"
         id="path630" />
    </g>
    <g
       id="g632"
       transform="matrix(1.7230222,0,0,-1.7125082,61.01929,182.19958)">
      <path
         d="M 0,0 C 8.159,0 14.772,6.614 14.772,14.773"
         style="fill:none;stroke:#ffffff;stroke-width:3.84;stroke-linecap:round;stroke-linejoin:round;stroke-miterlimit:22.926;stroke-dasharray:none;stroke-opacity:1"
         id="path634" />
    </g>
    <g
       id="g636"
       transform="matrix(1.7230222,0,0,-1.7125082,37.504318,104.29725)">
      <path
         d="M 0,0 C -6.119,0 -11.079,-4.96 -11.079,-11.079"
         style="fill:none;stroke:#ffffff;stroke-width:3.84;stroke-linecap:round;stroke-linejoin:round;stroke-miterlimit:22.926;stroke-dasharray:none;stroke-opacity:1"
         id="path638" />
    </g>
    <g
       id="g640"
       transform="matrix(1.7230222,0,0,-1.7125082,104.51042,19.258726)">
      <path
         d="M 0,0 V -123.883"
         style="fill:none;stroke:#ffffff;stroke-width:3.84;stroke-linecap:butt;stroke-linejoin:miter;stroke-miterlimit:22.926;stroke-dasharray:none;stroke-opacity:1"
         id="path642" />
    </g>
    <g
       id="g644"
       transform="matrix(1.7230222,0,0,-1.7125082,134.1004,78.373838)">
      <path
         d="m 0,0 c -5.195,0 -9.406,4.211 -9.406,9.406 0,5.195 4.211,9.407 9.406,9.407 5.195,0 9.406,-4.212 9.406,-9.407"
         style="fill:none;stroke:#ffffff;stroke-width:3.84;stroke-linecap:round;stroke-linejoin:round;stroke-miterlimit:22.926;stroke-dasharray:none;stroke-opacity:1"
         id="path646" />
    </g>
    <g
       id="g648"
       transform="matrix(1.7230222,0,0,-1.7125082,150.37486,62.06151)">
      <path
         d="m 0,0 c 0.791,0.303 1.648,0.468 2.545,0.468 3.937,0 7.129,-3.192 7.129,-7.128 0,-3.936 -3.192,-7.127 -7.129,-7.127"
         style="fill:none;stroke:#ffffff;stroke-width:3.84;stroke-linecap:round;stroke-linejoin:round;stroke-miterlimit:22.926;stroke-dasharray:none;stroke-opacity:1"
         id="path650" />
    </g>
    <g
       id="g652"
       transform="matrix(1.7230222,0,0,-1.7125082,154.75976,85.672018)">
      <path
         d="m 0,0 c 0.814,-0.23 1.602,-0.61 2.32,-1.146 3.157,-2.352 3.809,-6.818 1.457,-9.974 -2.351,-3.157 -6.818,-3.809 -9.974,-1.456"
         style="fill:none;stroke:#ffffff;stroke-width:3.84;stroke-linecap:round;stroke-linejoin:round;stroke-miterlimit:22.926;stroke-dasharray:none;stroke-opacity:1"
         id="path654" />
    </g>
    <g
       id="g656"
       transform="matrix(1.7230222,0,0,-1.7125082,134.558,95.768105)">
      <path
         d="m 0,0 c -0.699,0.476 -1.496,0.833 -2.369,1.038 -3.832,0.901 -7.67,-1.475 -8.57,-5.307 -0.901,-3.832 1.474,-7.669 5.306,-8.57"
         style="fill:none;stroke:#ffffff;stroke-width:3.84;stroke-linecap:round;stroke-linejoin:round;stroke-miterlimit:22.926;stroke-dasharray:none;stroke-opacity:1"
         id="path658" />
    </g>
    <g
       id="g660"
       transform="matrix(1.7230222,0,0,-1.7125082,125.32709,118.10265)">
      <path
         d="m 0,0 c -0.641,-0.553 -1.191,-1.23 -1.617,-2.02 -1.865,-3.465 -0.569,-7.789 2.898,-9.654 3.465,-1.866 7.787,-0.568 9.655,2.898"
         style="fill:none;stroke:#ffffff;stroke-width:3.84;stroke-linecap:round;stroke-linejoin:round;stroke-miterlimit:22.926;stroke-dasharray:none;stroke-opacity:1"
         id="path662" />
    </g>
    <g
       id="g664"
       transform="matrix(1.7230222,0,0,-1.7125082,161.19766,129.94296)">
      <path
         d="m 0,0 c -0.701,0.476 -1.498,0.834 -2.369,1.039 -3.832,0.904 -7.672,-1.47 -8.574,-5.301 -0.905,-3.832 1.468,-7.67 5.3,-8.574"
         style="fill:none;stroke:#ffffff;stroke-width:3.84;stroke-linecap:round;stroke-linejoin:round;stroke-miterlimit:22.926;stroke-dasharray:none;stroke-opacity:1"
         id="path666" />
    </g>
    <g
       id="g668"
       transform="matrix(1.7230222,0,0,-1.7125082,148.03275,182.19958)">
      <path
         d="M 0,0 C -8.158,0 -14.773,6.614 -14.773,14.773"
         style="fill:none;stroke:#ffffff;stroke-width:3.84;stroke-linecap:round;stroke-linejoin:round;stroke-miterlimit:22.926;stroke-dasharray:none;stroke-opacity:1"
         id="path670" />
    </g>
    <g
       id="g672"
       transform="matrix(1.7230222,0,0,-1.7125082,171.54577,104.29725)">
      <path
         d="M 0,0 C 6.121,0 11.08,-4.96 11.08,-11.079"
         style="fill:none;stroke:#ffffff;stroke-width:3.84;stroke-linecap:round;stroke-linejoin:round;stroke-miterlimit:22.926;stroke-dasharray:none;stroke-opacity:1"
         id="path674" />
    </g>
    <g
       id="g676"
       transform="matrix(1.7230222,0,0,-1.7125082,139.96608,243.3098)">
      <path
         d="m 0,0 v -23.662 c 0,-3.962 -3.24,-7.203 -7.203,-7.203 h -26.75 c -3.961,0 -7.202,3.241 -7.202,7.203 V 0 Z"
         style="fill:#427599;fill-opacity:1;fill-rule:evenodd;stroke:none"
         id="path678" />
    </g>
    <path
       transform="scale(0.26458333)"
       id="path2500"
       d="m 339.74908,917.66253 c -0.34264,-0.98214 -15.13164,-50.96428 -32.86444,-111.07142 -17.73279,-60.10715 -32.55904,-110.3361 -32.94723,-111.6199 -0.4721,-1.5613 0.37296,-2.6076 2.55213,-3.15996 6.5177,-1.65204 25.32464,-15.42793 34.18189,-25.03786 16.24391,-17.62434 25.44315,-37.40966 28.37915,-61.0366 1.95667,-15.74598 0.40193,-21.37651 -6.7249,-24.3543 -10.41595,-4.35206 -18.98365,2.6248 -19.0279,15.49482 -0.077,22.41258 -14.95827,49.58081 -34.5176,63.01777 -16.41785,11.27883 -47.4901,16.55884 -69.69674,11.84337 -20.65789,-4.38662 -42.37937,-17.64676 -54.50044,-33.27047 -8.76793,-11.30162 -11.69965,-16.48532 -16.41255,-29.01973 -3.69532,-9.82807 -4.02725,-12.30949 -4.01299,-30 0.0151,-18.77537 1.12565,-25.00203 6.89936,-38.68469 0.73047,-1.7311 -0.47466,-2.6774 -5.17867,-4.06641 -31.25807,-9.22993 -53.541824,-41.43474 -50.596702,-73.1231 1.71209,-18.42142 11.497461,-37.61466 23.326622,-45.75333 7.57776,-5.21363 19.94434,-9.79791 26.46085,-9.80901 7.41578,-0.0129 15.11925,-2.68989 17.49357,-6.0797 3.65643,-5.22029 2.77105,-12.11748 -2.1927,-17.08122 -4.28897,-4.28897 -4.58706,-4.35997 -14.7116,-3.50413 -13.77334,1.16427 -26.80389,5.35382 -38.075408,12.24187 -10.816771,6.61018 -10.237996,6.90555 -18.008939,-9.19054 -20.955627,-43.40574 -2.803186,-99.45164 39.516527,-122.00781 4.68283,-2.49593 8.51424,-4.74327 8.51424,-4.9941 0,-0.25083 -0.94992,-2.72952 -2.11092,-5.5082 -1.16101,-2.77869 -2.79935,-9.48915 -3.64076,-14.91213 -6.68213,-43.06736 32.11809,-83.95232 75.75168,-79.82182 5.10714,0.48345 10.92365,1.24756 12.92557,1.69801 3.37979,0.76049 4.08573,-0.0808 9.88026,-11.77464 8.69569,-17.54864 24.3517,-33.26712 41.4976,-41.66317 16.3302,-7.996628 26.35943,-10.38891 43.55371,-10.38891 25.76158,0 47.54639,8.71767 65.79938,26.33106 l 10.6292,10.25675 v 57.20332 c 0,41.42323 -0.4562,57.65953 -1.65375,58.85707 -1.2526,1.2526 -1.25137,2.13856 0.006,3.65251 1.24344,1.49825 1.6516,55.68955 1.62993,216.40473 l -0.0289,214.40597 -5.12352,4.22325 c -16.85551,13.89373 -41.11997,19.34004 -62.01561,13.91978 -4.29517,-1.11415 -7.98531,-1.84983 -8.20031,-1.63481 -0.21502,0.215 14.0877,49.34254 31.78378,109.1723 17.6961,59.82977 32.17472,109.42257 32.17472,110.20624 0,2.21892 -29.93536,1.86719 -30.71268,-0.36086 z M 232.97573,582.35832 c 15.2145,-7.19767 27.23108,-21.76163 31.72482,-38.45013 1.61515,-5.99821 1.82378,-6.17474 6.21622,-5.2601 16.49548,3.43489 28.7366,1.96107 42.87671,-5.16227 27.20675,-13.70591 39.233,-48.01721 26.74887,-76.31531 l -2.58045,-5.84918 6.60707,-4.86674 c 3.63388,-2.67671 9.29287,-8.87266 12.57551,-13.76878 15.59555,-23.26105 12.4985,-54.20635 -7.42128,-74.15269 -16.8254,-16.84781 -41.20003,-21.87627 -64.24566,-13.2538 -11.0228,4.12416 -16.44436,9.42726 -16.44436,16.08506 0,6.96624 1.1593,9.29983 5.81646,11.70814 5.4447,2.81556 9.40041,2.63046 14.77521,-0.69136 16.50345,-10.19968 38.58988,-4.09138 47.12306,13.03252 9.30764,18.67798 1.4e-4,39.82015 -20.57187,46.7294 -13.57034,4.55768 -16.52587,14.0941 -7.64574,24.67001 7.1518,8.51752 10.44014,16.32189 10.44014,24.77802 0,17.8851 -14.74553,32.18781 -33.10566,32.11148 -12.45473,-0.0517 -20.9531,-5.12894 -29.58487,-17.6748 -16.45827,-23.92127 -48.83236,-32.51748 -75.30281,-19.99497 -11.90303,5.63104 -15.99304,12.96871 -11.71057,21.00934 4.06153,7.6258 11.11233,8.59343 22.83909,3.13433 19.39752,-9.03003 41.52676,0.96317 47.11786,21.27764 2.02462,7.35615 -0.15485,19.2098 -4.8057,26.13706 -3.71433,5.53237 -14.56694,13.28563 -18.59655,13.28563 -4.77302,0 -11.07376,7.69629 -11.07376,13.52647 0,12.25692 11.99158,15.63627 28.22826,7.95503 z m 5.56777,-158.86046 c 14.92194,-5.52351 21.63395,-12.73053 19.76805,-21.22593 -1.14801,-5.22685 -6.9418,-9.96654 -12.1831,-9.96654 -2.1714,0 -7.61427,1.92857 -12.09527,4.28572 -28.69744,15.09572 -59.39487,-13.22913 -45.85406,-42.31005 3.75386,-8.06197 9.46051,-13.11228 19.84718,-17.56453 8.90843,-3.8186 12.16997,-10.2907 9.00414,-17.86758 -2.3178,-5.54727 -5.9479,-7.97213 -11.93457,-7.97213 -10.99695,0 -24.41461,-8.47801 -29.75166,-18.79874 -1.24571,-2.40893 -2.60844,-7.70816 -3.02828,-11.77605 -1.00981,-9.78408 3.50502,-20.53297 11.49816,-27.3748 9.43223,-8.07364 13.41376,-8.67475 36.69894,-5.54067 9.70284,1.30596 12.53271,-1.62857 14.94028,-15.49277 3.36607,-19.38381 11.3496,-31.07777 26.74537,-39.1756 6.71747,-3.53324 9.04335,-3.9705 21.12022,-3.9705 12.07698,0 14.40271,0.43724 21.1205,3.97064 19.17471,10.08546 29.57398,30.4348 25.8495,50.5824 -4.09902,22.17359 -20.47426,36.71593 -44.66167,39.66263 -6.01302,0.73256 -9.3681,1.98622 -11.78572,4.40385 -7.91436,7.91434 -1.1962,22.10902 10.43893,22.05624 18.50689,-0.084 38.15737,-8.67303 51.8956,-22.68312 22.52974,-22.97557 27.73923,-55.03181 13.62189,-83.82132 -12.75279,-26.00673 -37.23753,-41.16994 -66.47903,-41.16994 -32.62816,0 -59.95107,19.5107 -70.66647,50.46143 -1.70232,4.91701 -1.88849,5.01063 -13.16943,6.62246 -6.29348,0.89922 -15.07814,3.29931 -19.52146,5.33353 -11.25021,5.15051 -22.8058,16.51339 -28.45175,27.97722 -4.3603,8.85341 -4.61946,10.26314 -4.61946,25.1278 0,14.80171 0.27884,16.33694 4.63974,25.54477 3.13389,6.61705 7.37007,12.42707 13.05223,17.90141 l 8.41247,8.1048 -2.90321,3.52717 c -4.77909,5.80619 -9.39103,17.22346 -10.96243,27.1385 -6.96892,43.97153 37.2537,79.6159 79.41437,64.0097 z"
       style="fill:#ffcc00;stroke-width:1.42857" />
    <path
       transform="scale(0.26458333)"
       id="path2502"
       d="m 419.57449,916.94825 c 0.40361,-1.375 15.01532,-50.87804 32.47046,-110.00676 17.45515,-59.1287 31.47095,-107.77243 31.14623,-108.09716 -0.32473,-0.32472 -4.10465,0.32118 -8.39982,1.43533 -20.65116,5.35685 -43.21168,0.21317 -61.82961,-14.09678 l -5.35714,-4.11757 v -50.50993 c 0,-33.6917 0.49877,-50.81819 1.49794,-51.43572 1.03349,-0.63873 1.03966,-1.47797 0.0199,-2.7067 -2.21942,-2.67424 -2.08693,-323.41483 0.13471,-326.09174 1.2535,-1.51039 1.25379,-2.3952 10e-4,-3.6478 -1.19661,-1.19661 -1.65374,-17.20492 -1.65374,-57.91332 v -56.25957 l 5.18974,-6.33339 c 10.61108,-12.94943 30.53374,-25.09978 48.91118,-29.829759 11.65939,-3.000888 32.38116,-3.053112 45.05629,-0.113553 27.37075,6.347702 51.34382,25.696232 63.43153,51.195232 4.81672,10.16084 5.5746,11.04937 8.83983,10.36377 25.50627,-5.35554 49.15336,0.66178 66.78033,16.99318 20.67334,19.15384 28.67452,49.99411 19.32063,74.47064 l -2.76184,7.22698 8.68758,4.76249 c 5.15567,2.82631 13.63922,9.7615 20.86732,17.05874 19.24228,19.42635 27.04224,38.41149 27.08487,65.92467 0.0291,18.78646 -5.24534,37.27662 -14.23456,49.90082 l -2.91947,4.10001 -8.11209,-4.88484 c -16.69821,-10.05514 -41.05694,-15.91136 -50.28448,-12.08919 -5.59234,2.31643 -9.22234,8.77818 -8.01622,14.26965 1.51552,6.90008 6.05425,9.6989 18.51425,11.41681 20.47077,2.8224 33.65167,11.37666 42.17745,27.37267 12.59793,23.63613 11.49372,50.94237 -2.9337,72.54759 -9.26937,13.881 -24.46117,25.2894 -38.4506,28.87478 l -6.48247,1.6614 4.16465,12.31523 c 3.5466,10.4876 4.16707,14.54126 4.18105,27.31522 0.0197,17.97883 -2.63198,29.06523 -10.63974,44.48398 -11.06954,21.31413 -31.65904,38.87275 -54.49366,46.47192 -10.22021,3.4012 -14.04008,3.9123 -29.59215,3.95947 -13.85438,0.042 -19.77848,-0.5648 -26.42858,-2.70716 -4.71428,-1.51873 -9.66146,-2.86886 -10.99373,-3.00028 -9.05403,-0.89313 -31.10429,-22.08813 -38.72708,-37.22498 -5.04923,-10.02642 -9.5649,-27.42035 -9.5649,-36.84307 0,-7.62457 -5.27677,-12.9321 -12.85714,-12.9321 -4.88687,0 -6.69613,0.78893 -9.62917,4.19879 -3.44565,4.00581 -3.57466,4.79221 -2.80691,17.1104 2.25113,36.11876 23.96532,69.82796 55.75396,86.5527 4.85374,2.55367 9.06006,4.83561 9.34739,5.071 0.28733,0.23538 -14.4958,51.24646 -32.8514,113.35794 L 449.75895,919.44825 H 434.2998 c -14.05018,0 -15.39227,-0.22786 -14.72531,-2.5 z M 581.42843,583.37682 c 4.22958,-4.69883 5.02448,-8.04674 3.21345,-13.5342 -1.37614,-4.16979 -3.11087,-5.56699 -11.86478,-9.55627 -15.46697,-7.04853 -22.3442,-16.66177 -22.28397,-31.14936 0.0174,-4.19116 1.18838,-10.08633 2.63385,-13.26017 3.25073,-7.13763 12.40263,-15.52219 19.49919,-17.86426 7.30054,-2.4094 20.80206,-1.04125 26.89683,2.72553 10.76118,6.65079 22.36733,1.70736 22.36733,-9.52696 0,-6.84484 -3.56776,-10.94402 -13.43972,-15.44158 -15.64997,-7.12994 -34.70444,-7.13933 -50.24478,-0.0247 -10.64244,4.87228 -15.51147,9.01392 -24.88693,21.16905 -10.59539,13.73675 -17.09566,17.20871 -30.9814,16.54794 -8.66321,-0.41224 -11.22437,-1.16134 -16.39478,-4.79524 -3.37021,-2.36867 -8.07144,-7.45067 -10.44717,-11.29333 -3.59761,-5.819 -4.3095,-8.43786 -4.25963,-15.6701 0.0669,-9.70249 2.5411,-15.57249 10.1348,-24.04472 9.10304,-10.15618 5.52285,-21.55852 -8.2003,-26.11662 -24.37942,-8.09755 -31.56157,-38.10953 -13.19664,-55.14475 10.63864,-9.86835 24.00332,-11.6589 38.16061,-5.1126 10.70075,4.948 14.39048,4.89189 19.58011,-0.29774 7.38752,-7.38751 4.94704,-16.25243 -6.13467,-22.28386 -24.66372,-13.42367 -52.73558,-9.15365 -71.89833,10.93649 -4.35018,4.56071 -9.62117,12.00847 -11.7133,16.55056 -3.37023,7.31687 -3.81136,10.0527 -3.86945,23.99768 -0.0623,14.94516 0.16953,16.21712 4.59375,25.20874 3.20262,6.50889 7.54431,12.16819 13.88705,18.10152 l 9.22773,8.63208 -3.06765,6.87346 c -4.25626,9.53667 -5.12959,27.19827 -1.9004,38.43253 6.29194,21.88953 24.2423,37.8904 47.28559,42.15019 8.19565,1.51504 20.92357,0.76331 27.14862,-1.60345 2.84898,-1.08318 3.2278,-0.64777 4.08155,4.6913 2.41313,15.0909 19.09098,35.14353 33.99111,40.86925 10.41134,4.0008 18.3854,3.94071 22.08233,-0.16638 z m 11.51791,-159.92279 c 22.13421,-8.19458 36.7573,-27.59758 38.56594,-51.17212 1.102,-14.36385 -3.03355,-27.84885 -12.76581,-41.62616 -1.40803,-1.99327 -0.43397,-3.49347 6.21217,-9.56767 38.79939,-35.46046 16.52617,-97.64974 -36.75544,-102.62525 -8.92357,-0.8333 -9.11079,-0.93806 -10.7267,-6.00277 -8.2206,-25.76543 -32.77432,-46.31154 -59.95095,-50.16588 -55.17311,-7.82496 -99.25609,45.80549 -80.75458,98.24435 9.18247,26.0259 34.48585,45.4968 62.77316,48.30383 10.72733,1.06452 15.75376,-0.695 18.79695,-6.57987 5.0303,-9.72753 -0.9035,-17.71793 -14.3079,-19.26684 -19.25983,-2.22556 -35.66374,-14.48749 -42.06098,-31.44063 -2.58785,-6.85799 -3.09629,-10.54904 -2.58725,-18.78213 2.47173,-39.97757 49.70183,-59.26345 79.50719,-32.46587 8.81644,7.92674 14.10621,18.41701 15.61766,30.97178 1.5794,13.11915 5.38871,17.34062 14.52338,16.09478 17.79427,-2.4269 21.80983,-2.45362 27.75107,-0.18463 12.36733,4.72313 20.73279,17.00413 20.78899,30.51947 0.0703,16.89086 -11.6411,30.13544 -28.7661,32.53223 -12.74236,1.7834 -16.91681,5.4341 -16.91681,14.7943 0,4.88744 5.70974,11.01437 11.43657,12.2722 5.98638,1.31483 16.43345,11.17428 19.27324,18.18917 8.75053,21.61571 -6.8825,45.25013 -29.99553,45.348 -5.01761,0.0213 -9.83758,-1.24457 -16.1997,-4.25434 -4.98126,-2.35653 -10.95691,-4.28459 -13.27922,-4.28459 -10.28274,0 -15.29717,14.63949 -7.63793,22.29873 11.89626,11.89626 38.26152,15.9571 57.45858,8.84991 z"
       style="fill:#ffcc00;stroke-width:1.42857" />
    <path
       transform="scale(0.26458333)"
       id="path2504"
       d="m 295.46175,1116.7601 c -12.73758,-4.0829 -23.07724,-12.9065 -29.49346,-25.169 l -3.36368,-6.4286 -0.40153,-82.5 -0.40152,-82.49997 H 394.74713 527.6927 l -0.40119,83.21427 c -0.37696,78.1894 -0.56288,83.5162 -3.07908,88.2143 -5.06812,9.4629 -12.10292,16.6281 -21.13092,21.5228 l -9.04833,4.9058 -96.42857,0.286 c -75.15248,0.223 -97.68938,-0.1181 -102.14286,-1.5456 z"
       style="fill:#1a1a1a;stroke-width:1.42857" />
  </g>
</svg>
