<?xml version="1.0" encoding="UTF-8" standalone="no"?>
<svg
   xmlns:dc="http://purl.org/dc/elements/1.1/"
   xmlns:cc="http://creativecommons.org/ns#"
   xmlns:rdf="http://www.w3.org/1999/02/22-rdf-syntax-ns#"
   xmlns:svg="http://www.w3.org/2000/svg"
   xmlns="http://www.w3.org/2000/svg"
   xmlns:sodipodi="http://sodipodi.sourceforge.net/DTD/sodipodi-0.dtd"
   xmlns:inkscape="http://www.inkscape.org/namespaces/inkscape"
   sodipodi:docname="Tata_Consultancy_Services_Logo.svg"
   inkscape:version="1.0 (4035a4fb49, 2020-05-01)"
   id="svg8"
   version="1.1"
   viewBox="0 0 79.853354 37.348696"
   height="141.16043"
   width="301.80795">
  <defs
     id="defs2">
    <inkscape:perspective
       sodipodi:type="inkscape:persp3d"
       inkscape:vp_x="0 : 290.62498 : 1"
       inkscape:vp_y="0 : 999.99993 : 0"
       inkscape:vp_z="1250 : 290.62498 : 1"
       inkscape:persp3d-origin="625.00001 : 193.74999 : 1"
       id="perspective70" />
  </defs>
  <sodipodi:namedview
     inkscape:document-rotation="0"
     inkscape:window-maximized="1"
     inkscape:window-y="-11"
     inkscape:window-x="-11"
     inkscape:window-height="986"
     inkscape:window-width="1920"
     units="px"
     fit-margin-bottom="0"
     fit-margin-right="0"
     fit-margin-left="0"
     fit-margin-top="0"
     showgrid="false"
     inkscape:current-layer="layer1"
     inkscape:document-units="mm"
     inkscape:cy="71.037557"
     inkscape:cx="162.73995"
     inkscape:zoom="3.7985971"
     inkscape:pageshadow="2"
     inkscape:pageopacity="0.0"
     borderopacity="1.0"
     bordercolor="#666666"
     pagecolor="#ffffff"
     id="base" />
  <metadata
     id="metadata5">
    <rdf:RDF>
      <cc:Work
         rdf:about="">
        <dc:format>image/svg+xml</dc:format>
        <dc:type
           rdf:resource="http://purl.org/dc/dcmitype/StillImage" />
        <dc:title />
      </cc:Work>
    </rdf:RDF>
  </metadata>
  <g
     transform="translate(-65.337919,-129.56114)"
     id="layer1"
     inkscape:groupmode="layer"
     inkscape:label="Layer 1">
    <g
       transform="translate(0.26458152,-0.26457561)"
       id="g138">
      <path
         inkscape:connector-curvature="0"
         d="m 98.238805,131.44906 c 1.708944,-0.78502 3.571085,-1.20094 5.440365,-1.35176 0.87154,-0.003 1.74307,0.0119 2.61461,-0.007 2.82496,0.21511 5.67531,1.05569 7.93829,2.80829 0.8763,0.72152 1.69942,1.55972 2.20425,2.58842 -3.28454,-0.71755 -6.62305,-1.25572 -9.98855,-1.35493 -0.38656,-0.0262 -0.86281,0.23653 -0.85408,0.66675 0.0103,3.78777 0,7.57475 0.002,11.36253 -0.37703,0.0159 -0.75327,0.008 -1.1303,0.0151 -7.9e-4,-3.81873 0.004,-7.63746 0.0175,-11.4554 -0.046,-0.40243 -0.50641,-0.63103 -0.87868,-0.58738 -3.37105,0.1143 -6.722267,0.62865 -10.006805,1.3843 0.312738,-0.65325 0.757238,-1.23348 1.267619,-1.74387 0.946944,-1.00012 2.125663,-1.75577 3.374231,-2.32489 z"
         id="path5"
         style="opacity:1;fill:#5f68c3;stroke-width:0.079375" />
      <path
         inkscape:connector-curvature="0"
         d="m 93.108006,136.77115 c 2.859087,-0.55959 5.755481,-0.96361 8.666164,-1.12156 0.44767,-0.0294 0.97075,0.21669 1.09696,0.67627 0.11748,0.68501 -0.0135,1.38192 -0.14684,2.05502 -0.50642,2.46221 -1.01362,4.92363 -1.51686,7.38664 -1.995487,-0.45403 -3.944143,-1.26286 -5.541168,-2.56143 -0.897732,-0.74851 -1.694657,-1.64783 -2.189163,-2.71542 -0.5461,-1.14777 -0.696119,-2.48762 -0.369093,-3.71952 z"
         id="path7"
         style="opacity:1;fill:#5f68c3;stroke-width:0.079375" />
      <path
         inkscape:connector-curvature="0"
         d="m 107.84636,135.72182 c 0.26273,-0.11272 0.55324,-0.0675 0.83026,-0.054 2.69002,0.16113 5.3594,0.55563 8.00973,1.03108 0.0937,0.0318 0.25638,0.0191 0.27305,0.15002 0.32067,1.26683 0.13176,2.6416 -0.46117,3.80048 -0.60007,1.18507 -1.54702,2.16455 -2.61302,2.94243 -1.04934,0.73263 -2.20425,1.31683 -3.41948,1.72085 -0.51594,0.18494 -1.05092,0.3048 -1.57242,0.46831 -0.40878,-2.07804 -0.84772,-4.15052 -1.27238,-6.22538 -0.18494,-1.01997 -0.50959,-2.03914 -0.41592,-3.08769 0.0143,-0.36195 0.32226,-0.62865 0.64135,-0.74612 z"
         id="path9"
         style="opacity:1;fill:#5f68c3;stroke-width:0.079375" />
      <path
         inkscape:connector-curvature="0"
         d="m 88.951137,150.3157 c 2.585244,-0.0341 5.172075,-0.007 7.757318,-0.0127 0.0032,0.77867 0.0127,1.55734 -0.0056,2.33601 -0.7493,7.9e-4 -1.4986,-0.002 -2.2479,-0.006 -0.0127,1.89707 -0.004,3.79413 -0.0056,5.69119 -1.083469,-0.002 -2.167731,-0.002 -3.2512,0 0.03493,-1.90262 0.0056,-3.80524 0.01826,-5.70785 -0.75565,0.0476 -1.512887,0.006 -2.269331,0.0246 0.01429,-0.7747 0.0079,-1.55019 0.004,-2.32569 z"
         id="path11"
         style="opacity:1;fill:#5f68c3;stroke-width:0.079375" />
      <path
         inkscape:connector-curvature="0"
         d="m 98.908731,150.44985 c 0.03096,-0.20003 0.253206,-0.1405 0.396081,-0.14923 1.020758,0.0127 2.042318,-0.0214 3.062288,0.0127 1.02156,2.667 2.05502,5.32924 3.05911,8.00338 -1.05013,0.0175 -2.09947,-0.009 -3.1496,0.019 -0.53499,-1.58591 -1.07394,-3.16944 -1.61766,-4.75218 -0.52546,1.58115 -1.058863,3.15992 -1.611313,4.73075 -1.052513,0.0246 -2.105025,-0.0119 -3.156744,0.023 1.004887,-2.62969 2.007394,-5.26018 3.017838,-7.88749 z"
         id="path13"
         style="opacity:1;fill:#5f68c3;stroke-width:0.079375" />
      <path
         inkscape:connector-curvature="0"
         d="m 104.62452,150.303 c 2.58128,-0.002 5.16335,-0.003 7.74462,0 0.0199,0.77312 8e-4,1.54702 0.0127,2.32014 -0.75485,0.0302 -1.50971,0.006 -2.26457,0.0159 -0.002,1.89865 -0.01,3.7973 0.007,5.69595 -1.08109,-0.027 -2.16218,-7.9e-4 -3.24247,-0.0175 0.009,-1.8931 0.004,-3.7854 0.004,-5.67849 -0.75962,-0.003 -1.51845,-7.9e-4 -2.27806,0.002 0.0278,-0.77946 0.006,-1.55892 0.0167,-2.33839 z"
         id="path15"
         style="opacity:1;fill:#5f68c3;stroke-width:0.079375" />
      <path
         inkscape:connector-curvature="0"
         d="m 114.63768,150.29983 c 1.1303,0.002 2.25981,-0.005 3.39011,0.006 1.0287,2.66779 2.06057,5.33558 3.06149,8.0137 -1.04616,0.0127 -2.09312,-0.009 -3.13928,0.0143 -0.54451,-1.56607 -1.06124,-3.14245 -1.61608,-4.70455 -0.56594,1.55337 -1.06362,3.13134 -1.61607,4.68947 -1.05648,0.0191 -2.11296,-0.0175 -3.16865,0.0214 1.03664,-2.67732 2.05026,-5.36337 3.08848,-8.03989 z"
         id="path17"
         style="opacity:1;fill:#5f68c3;stroke-width:0.079375" />
      <path
         inkscape:connector-curvature="0"
         d="m 84.121168,163.19589 c 0.638969,-0.42704 1.47955,-0.43498 2.189162,-0.19209 -0.02381,0.20558 -0.07779,0.4056 -0.146843,0.60087 -0.517525,-0.15399 -1.138238,-0.23257 -1.6002,0.11033 -0.623888,0.47942 -0.655638,1.47875 -0.223044,2.0947 0.429419,0.52705 1.221581,0.51118 1.810544,0.30004 0.06668,0.19606 0.115887,0.39688 0.157162,0.60008 -0.435769,0.1643 -0.907256,0.127 -1.363662,0.12462 -0.673894,-0.0111 -1.306513,-0.47864 -1.534319,-1.10967 -0.327819,-0.87233 -0.100806,-2.00025 0.7112,-2.52888 z"
         id="path19"
         style="opacity:1;fill:#5f68c3;stroke-width:0.079375" />
      <path
         inkscape:connector-curvature="0"
         d="m 87.919262,162.8887 c 0.624681,-0.14763 1.337469,0.0302 1.768475,0.5207 0.437356,0.4826 0.542131,1.17952 0.461168,1.80658 -0.0762,0.61516 -0.423862,1.2319 -1.008062,1.48987 -0.369888,0.1524 -0.788194,0.26511 -1.185069,0.15716 -0.512762,-0.10477 -0.989012,-0.4318 -1.223169,-0.90646 -0.373856,-0.762 -0.327818,-1.73752 0.185738,-2.42491 0.240506,-0.32861 0.605631,-0.55324 1.000919,-0.64294 m 0.07382,0.62151 c -0.380206,0.13256 -0.600868,0.52149 -0.669925,0.89932 -0.115093,0.55324 -0.04366,1.20253 0.369094,1.62163 0.4064,0.39529 1.159669,0.2921 1.440656,-0.20399 0.338932,-0.58103 0.337344,-1.36208 -0.01032,-1.93913 -0.2159,-0.38815 -0.726282,-0.51832 -1.129507,-0.37783 z"
         id="path21"
         style="opacity:1;fill:#5f68c3;stroke-width:0.079375" />
      <path
         inkscape:connector-curvature="0"
         d="m 95.179693,162.98872 c 0.536575,-0.23019 1.161256,-0.16987 1.693069,0.0445 -0.06191,0.20875 -0.122238,0.41751 -0.177007,0.62865 -0.360362,-0.18812 -0.799306,-0.27067 -1.185068,-0.11272 -0.262732,0.11034 -0.308769,0.52388 -0.07144,0.6866 0.408781,0.30004 0.967581,0.35877 1.316038,0.7493 0.445293,0.46593 0.3048,1.30572 -0.2286,1.64385 -0.365919,0.2675 -0.842169,0.19844 -1.266825,0.20955 -0.284163,0.0151 -0.551656,-0.0913 -0.800894,-0.21431 0.05239,-0.20161 0.103981,-0.40322 0.157162,-0.60404 0.440532,0.18574 0.969169,0.3421 1.425576,0.12303 0.334962,-0.17066 0.265112,-0.71041 -0.06509,-0.84534 -0.47625,-0.23972 -1.077119,-0.37227 -1.353344,-0.8763 -0.274637,-0.53102 0.02699,-1.20174 0.556419,-1.43272 z"
         id="path23"
         style="opacity:1;fill:#5f68c3;stroke-width:0.079375" />
      <path
         inkscape:connector-curvature="0"
         d="m 114.52417,163.19271 c 0.64135,-0.42862 1.47638,-0.42386 2.18996,-0.19288 -0.0357,0.2032 -0.0881,0.40402 -0.14367,0.60325 -0.5199,-0.15002 -1.1422,-0.23416 -1.60575,0.11033 -0.44768,0.31194 -0.55801,0.90884 -0.49451,1.41843 0.0492,0.42863 0.30956,0.85725 0.72628,1.01362 0.43974,0.1651 0.93107,0.10478 1.37081,-0.0325 0.0452,0.20082 0.0929,0.40163 0.1389,0.60245 -0.41275,0.14685 -0.85407,0.12303 -1.28428,0.12224 -0.66437,0.0198 -1.31287,-0.40322 -1.57242,-1.01362 -0.39132,-0.88662 -0.17225,-2.08597 0.67468,-2.63128 z"
         id="path25"
         style="opacity:1;fill:#5f68c3;stroke-width:0.079375" />
      <path
         inkscape:connector-curvature="0"
         d="m 122.39738,162.94982 c 0.51514,-0.18732 1.09458,-0.11668 1.59623,0.0825 -0.0627,0.21035 -0.12541,0.4199 -0.18177,0.63183 -0.35322,-0.1786 -0.78263,-0.27385 -1.16205,-0.127 -0.28098,0.11827 -0.3421,0.54292 -0.0817,0.71596 0.48974,0.32147 1.19777,0.39449 1.47478,0.97869 0.32147,0.64612 -0.14843,1.46368 -0.84296,1.57957 -0.54689,0.0429 -1.13189,0.0905 -1.63195,-0.18336 0.0595,-0.20558 0.11827,-0.41116 0.17939,-0.61595 0.41751,0.20161 0.91361,0.32623 1.36525,0.15954 0.29369,-0.11271 0.35957,-0.55721 0.13017,-0.76358 -0.24447,-0.21352 -0.57308,-0.2802 -0.85566,-0.42545 -0.33734,-0.15875 -0.6604,-0.43418 -0.72787,-0.81915 -0.11033,-0.51753 0.25321,-1.04537 0.73819,-1.21365 z"
         id="path27"
         style="opacity:1;fill:#5f68c3;stroke-width:0.079375" />
      <path
         inkscape:connector-curvature="0"
         d="m 136.4666,163.31098 c 0.65008,-0.54213 1.57401,-0.55245 2.35267,-0.32306 -0.0413,0.21114 -0.0913,0.42148 -0.14605,0.63024 -0.49053,-0.16827 -1.06997,-0.23495 -1.53114,0.0484 -0.68183,0.42148 -0.74216,1.43986 -0.34687,2.07724 0.40958,0.60405 1.26127,0.57388 1.88119,0.3683 0.0405,0.19606 0.0825,0.39291 0.12224,0.59055 -0.43736,0.18653 -0.92075,0.12938 -1.38272,0.13018 -0.70961,-0.0119 -1.34223,-0.55245 -1.54701,-1.21841 -0.23495,-0.79375 -0.0699,-1.76212 0.59769,-2.30346 z"
         id="path29"
         style="opacity:1;fill:#5f68c3;stroke-width:0.079375" />
      <path
         inkscape:connector-curvature="0"
         d="m 142.83803,163.00459 c 0.53658,-0.25162 1.17872,-0.1905 1.71688,0.0278 -0.0595,0.21035 -0.11906,0.42069 -0.17383,0.63262 -0.35639,-0.18415 -0.78899,-0.27146 -1.17396,-0.12382 -0.2659,0.1143 -0.3294,0.53895 -0.0778,0.70326 0.43259,0.29686 1.01123,0.36592 1.35652,0.79296 0.21034,0.21272 0.17462,0.52943 0.17303,0.80327 0.0183,0.36036 -0.24606,0.66437 -0.53737,0.83979 -0.34845,0.20955 -0.77231,0.14525 -1.15887,0.15716 -0.28893,0.0135 -0.56436,-0.0818 -0.81518,-0.21352 0.05,-0.20002 0.10001,-0.40005 0.15002,-0.59928 0.43577,0.17383 0.93821,0.31909 1.3962,0.14367 0.32147,-0.1524 0.33497,-0.65564 0.0286,-0.83264 -0.46276,-0.27226 -1.06839,-0.36434 -1.37795,-0.85011 -0.3302,-0.51991 -0.0373,-1.22873 0.49371,-1.48114 z"
         id="path31"
         style="opacity:1;fill:#5f68c3;stroke-width:0.079375" />
      <path
         inkscape:connector-curvature="0"
         d="m 65.353743,162.86727 c 1.292225,0 2.58445,0 3.876675,8e-4 -0.0087,0.38893 -0.0095,0.77787 -0.0063,1.1676 -0.375444,0.0206 -0.750888,0.0198 -1.126331,0.0175 -0.004,0.95091 -0.0016,1.90261 7.93e-4,2.85432 -0.5461,-0.0437 -1.093787,-0.0151 -1.639887,-0.023 0.02302,-0.94853 -0.0016,-1.89785 0.01667,-2.84639 -0.378619,0.0175 -0.758032,0.0167 -1.137444,0.0143 v -0.1516 c 0.01191,-0.34449 0.01349,-0.68898 0.01587,-1.03347 z"
         id="path33"
         style="opacity:1;fill:#5f68c3;stroke-width:0.079375" />
      <path
         inkscape:connector-curvature="0"
         d="m 68.795443,166.8773 c 0.511969,-1.33826 1.012031,-2.68129 1.548606,-4.01003 0.559594,0.006 1.119188,-0.009 1.678781,0.0103 0.528638,1.32795 1.038225,2.66462 1.532732,4.00606 -0.525463,0.005 -1.050925,-0.0159 -1.5748,0.0262 -0.259557,-0.80327 -0.563563,-1.59226 -0.798513,-2.40347 -0.249237,0.79216 -0.519906,1.57797 -0.797719,2.3614 -0.528637,0.046 -1.059656,0.006 -1.589087,0.01 z"
         id="path35"
         style="opacity:1;fill:#5f68c3;stroke-width:0.079375" />
      <path
         inkscape:connector-curvature="0"
         d="m 73.131699,162.8768 c 1.294606,-0.0159 2.589213,-0.008 3.883819,-0.003 -0.0032,0.38894 -0.0063,0.77867 0.0048,1.1684 -0.375443,0.0119 -0.751681,0.0111 -1.127124,0.0143 -0.0032,0.92631 0.0048,1.85341 -0.0071,2.78051 -0.538163,-0.003 -1.075532,-0.002 -1.6129,0 -0.0071,-0.93028 -0.01429,-1.86055 0.0016,-2.79083 -0.381,0.01 -0.762,0.005 -1.143,0.0111 0.0071,-0.3937 0.0056,-0.7874 0,-1.1803 z"
         id="path37"
         style="opacity:1;fill:#5f68c3;stroke-width:0.079375" />
      <path
         inkscape:connector-curvature="0"
         d="m 76.613087,166.83364 c 0.48895,-1.32635 1.0033,-2.64319 1.508918,-3.96319 0.567532,0.002 1.135857,-0.0199 1.703388,0.0143 0.504825,1.31603 1.02235,2.62731 1.507331,3.95128 -0.52705,-0.002 -1.0541,-0.002 -1.58115,8e-4 -0.261143,-0.75962 -0.511968,-1.52321 -0.786606,-2.27807 -0.254794,0.75883 -0.508794,1.51765 -0.767556,2.27489 -0.527844,0 -1.056481,0 -1.584325,0 z"
         id="path39"
         style="opacity:1;fill:#5f68c3;stroke-width:0.079375" />
      <path
         inkscape:connector-curvature="0"
         d="m 90.741043,162.91569 c 0.280194,-0.0135 0.560388,-0.0143 0.841375,-0.007 0.55245,0.94218 1.165225,1.85182 1.624012,2.84559 -0.05874,-0.94774 -0.04048,-1.89785 -0.04286,-2.84718 0.225425,-0.002 0.45085,-0.003 0.676275,0 0.04842,1.30016 -7.94e-4,2.6035 0.02699,3.90446 -0.259556,0.006 -0.519112,0.01 -0.778668,0.0103 -0.5588,-1.02632 -1.254125,-1.98359 -1.697831,-3.06864 0.06826,1.02155 0.05239,2.04629 0.03889,3.06943 -0.229393,-0.002 -0.459581,-0.002 -0.688975,7.9e-4 0.0016,-1.30254 0.004,-2.60508 7.94e-4,-3.90763 z"
         id="path41"
         style="opacity:1;fill:#5f68c3;stroke-width:0.079375" />
      <path
         inkscape:connector-curvature="0"
         d="m 97.615712,162.90696 c 0.244475,-0.003 0.489744,-0.002 0.734218,0.003 0.03334,0.81756 -0.0063,1.63671 0.02381,2.45506 0.01746,0.30004 0.10795,0.63739 0.377031,0.80884 0.290513,0.16113 0.6985,0.12858 0.935831,-0.1143 0.219869,-0.2548 0.241301,-0.6096 0.246857,-0.93028 -7.94e-4,-0.73819 -0.004,-1.47637 -0.0016,-2.21536 0.248451,-0.01 0.497691,-0.0111 0.747721,-0.007 0.007,0.76597 0.008,1.53114 0.004,2.29711 -0.006,0.51991 -0.17145,1.08506 -0.60484,1.40812 -0.552457,0.37068 -1.328744,0.38814 -1.882782,0.0111 -0.422275,-0.30321 -0.567531,-0.84693 -0.581025,-1.34144 -0.01111,-0.79137 -7.94e-4,-1.58353 7.94e-4,-2.3749 z"
         id="path43"
         style="opacity:1;fill:#5f68c3;stroke-width:0.079375" />
      <path
         inkscape:connector-curvature="0"
         d="m 101.44873,162.91649 c 0.24924,-0.0127 0.49927,-0.0143 0.7493,-0.0103 0.006,1.0922 7.9e-4,2.1844 0.003,3.2766 0.52705,0 1.05489,-0.002 1.58194,0.003 0.006,0.20558 0.0111,0.41196 0.0135,0.61754 -0.78343,0.0341 -1.56686,0.005 -2.35029,0.0198 0.006,-1.30254 0.003,-2.60429 0.002,-3.90683 z"
         id="path45"
         style="opacity:1;fill:#5f68c3;stroke-width:0.079375" />
      <path
         inkscape:connector-curvature="0"
         d="m 103.35532,162.92045 c 0.99219,-0.0294 1.98517,-0.0151 2.97735,-0.0127 0.002,0.21432 0.002,0.42942 -7.9e-4,0.64453 -0.37544,-0.0143 -0.75009,-0.009 -1.12474,-0.0119 0.0191,1.08823 0.002,2.17805 0.0103,3.26708 -0.25639,0.0111 -0.51277,0.0167 -0.76915,0.0191 0.0349,-1.09538 0.002,-2.19234 0.0214,-3.28771 -0.36909,0.005 -0.73818,0.002 -1.10648,0.009 -0.005,-0.20955 -0.007,-0.41831 -0.008,-0.62707 z"
         id="path47"
         style="opacity:1;fill:#5f68c3;stroke-width:0.079375" />
      <path
         inkscape:connector-curvature="0"
         d="m 107.28438,162.92839 c 0.31274,-0.0421 0.62786,-0.0294 0.94139,-0.008 0.41195,1.30255 0.84852,2.59636 1.25889,3.8997 -0.26829,0 -0.53579,0 -0.80328,0 -0.11509,-0.3683 -0.22939,-0.7366 -0.3429,-1.1057 -0.40084,0.0167 -0.80248,0.0135 -1.20332,0.01 -0.11034,0.36116 -0.21987,0.72311 -0.32306,1.08664 -0.26591,0.006 -0.53261,0.0119 -0.79851,0.0167 0.4437,-1.29302 0.8374,-2.6027 1.27079,-3.8989 m -0.0111,2.2225 c 0.30797,-0.003 0.61674,-0.003 0.9263,-0.003 -0.15795,-0.52626 -0.33416,-1.04696 -0.47625,-1.57798 -0.13017,0.53261 -0.30241,1.05331 -0.45005,1.58115 z"
         id="path49"
         style="opacity:1;fill:#5f68c3;stroke-width:0.079375" />
      <path
         inkscape:connector-curvature="0"
         d="m 109.98392,162.91649 c 0.27385,-0.007 0.55087,-0.0326 0.82471,0.006 0.58976,0.93345 1.1938,1.87008 1.65021,2.88052 -0.0865,-0.96361 -0.0571,-1.9304 -0.054,-2.8956 0.22543,-0.002 0.45085,-0.002 0.67628,0.003 0.0341,1.29778 0.006,2.59715 0.0175,3.89572 -0.25559,0.0135 -0.51038,0.0183 -0.76518,0.0183 -0.56991,-0.9906 -1.19776,-1.95025 -1.69148,-2.98292 0.0413,0.99378 0.0429,1.98914 0.0349,2.98371 -0.23178,-0.004 -0.46355,-0.005 -0.69453,-0.002 0.002,-1.30175 0.002,-2.6035 0.002,-3.90604 z"
         id="path51"
         style="opacity:1;fill:#5f68c3;stroke-width:0.079375" />
      <path
         inkscape:connector-curvature="0"
         d="m 116.91495,162.91014 c 0.27146,-0.01 0.54372,-0.0103 0.81518,0.003 0.30163,0.55245 0.54372,1.13427 0.80248,1.70736 0.2802,-0.56198 0.5207,-1.143 0.80963,-1.70101 0.27146,-0.0222 0.54451,-0.0198 0.81756,-0.008 -0.36751,0.71914 -0.80407,1.39938 -1.18745,2.109 -0.096,0.14922 -0.0786,0.33178 -0.0841,0.50165 -0.003,0.43418 0.006,0.86915 -0.003,1.30413 -0.26035,-0.006 -0.5207,-0.008 -0.77947,7.9e-4 0.0246,-0.55562 0.0516,-1.12157 -0.007,-1.67402 -0.3683,-0.7612 -0.81756,-1.48034 -1.18348,-2.24313 z"
         id="path53"
         style="opacity:1;fill:#5f68c3;stroke-width:0.079375" />
      <path
         inkscape:connector-curvature="0"
         d="m 124.73894,162.90775 c 0.75645,-7.9e-4 1.51289,-0.0103 2.26933,0.003 0.0191,0.21273 0.0262,0.42624 0.0318,0.64056 -0.51911,-0.0413 -1.0406,-0.0119 -1.56051,-0.0222 0.006,0.31671 0.006,0.63421 0.006,0.95171 0.48498,-8e-4 0.96996,0.002 1.45574,0.003 0.004,0.21273 0.006,0.42545 0.005,0.63818 -0.48895,-0.0349 -0.9779,-0.0119 -1.46685,-0.0206 0.009,0.36195 0.007,0.7239 0.004,1.08585 0.53895,0.0183 1.07791,0.0111 1.61766,0.008 0.0135,0.2024 0.0198,0.4056 0.0222,0.6096 -0.7993,0.0333 -1.5994,0.002 -2.39871,0.0206 0.0246,-1.30571 0.002,-2.61143 0.0151,-3.91795 z"
         id="path55"
         style="opacity:1;fill:#5f68c3;stroke-width:0.079375" />
      <path
         inkscape:connector-curvature="0"
         d="m 127.69328,162.9657 c 0.47943,-0.0937 0.97234,-0.0984 1.45891,-0.0746 0.4572,0.0246 0.96997,0.2405 1.12633,0.70723 0.21432,0.5326 -0.0905,1.18348 -0.6342,1.36366 0.20637,0.10319 0.36989,0.2794 0.44847,0.49847 0.16907,0.44133 0.21431,0.92075 0.40084,1.35811 -0.26114,7.9e-4 -0.5207,0.002 -0.78026,0.002 -0.16668,-0.42307 -0.20399,-0.88662 -0.38735,-1.30175 -0.15557,-0.34687 -0.58975,-0.27464 -0.89693,-0.30083 0.0214,0.53023 0.004,1.06204 0.019,1.59306 -0.25877,0.004 -0.51753,0.0103 -0.7755,0.019 0.0492,-1.28747 0.008,-2.57652 0.0206,-3.86477 m 0.73581,0.49927 c 0.0175,0.39846 0.01,0.79772 0.0143,1.19697 0.30401,-0.007 0.64374,0.0492 0.91282,-0.13017 0.33655,-0.22146 0.31829,-0.81042 -0.0453,-0.99457 -0.27781,-0.11986 -0.58896,-0.0826 -0.88185,-0.0722 z"
         id="path57"
         style="opacity:1;fill:#5f68c3;stroke-width:0.079375" />
      <path
         inkscape:connector-curvature="0"
         d="m 130.62222,162.90775 c 0.27225,-0.004 0.54451,-0.004 0.81756,8e-4 0.29686,1.03822 0.63976,2.06295 0.90091,3.1115 0.26193,-1.05251 0.61118,-2.08201 0.95805,-3.10912 0.25638,-0.0103 0.51356,-0.01 0.77073,-0.002 -0.42227,1.30731 -0.90011,2.59636 -1.32953,3.90208 -0.2921,0.008 -0.5842,0.0111 -0.8763,0.0135 -0.3675,-1.31921 -0.83502,-2.60906 -1.24142,-3.91716 z"
         id="path59"
         style="opacity:1;fill:#5f68c3;stroke-width:0.079375" />
      <path
         inkscape:connector-curvature="0"
         d="m 134.45286,162.9141 c 0.24923,-0.0103 0.49847,-0.0111 0.7493,-0.007 -8e-4,1.30572 0.0103,2.61064 -0.008,3.91636 -0.24845,-0.003 -0.4961,-0.003 -0.74375,0 8e-4,-1.30333 0.002,-2.60667 0.002,-3.90922 z"
         id="path61"
         style="opacity:1;fill:#5f68c3;stroke-width:0.079375" />
      <path
         inkscape:connector-curvature="0"
         d="m 139.34712,162.92204 c 0.75962,-0.0341 1.52003,-0.0119 2.27965,-0.0151 0.0198,0.21273 0.027,0.42624 0.0325,0.64056 -0.51911,-0.0341 -1.03981,-0.01 -1.55972,-0.0183 0.003,0.31829 0.005,0.63659 0.006,0.95488 0.48578,-0.004 0.97076,-0.002 1.45653,8e-4 0.002,0.21193 0.002,0.42545 0.002,0.63817 -0.48816,-0.0365 -0.9779,-0.0135 -1.46606,-0.0198 0.005,0.36274 0.006,0.72469 0.003,1.08664 0.54055,0.0135 1.08109,0.008 1.62243,0.007 0.008,0.2032 0.0143,0.4072 0.0175,0.61199 -0.79851,0.023 -1.59782,0.002 -2.39633,0.0151 0.007,-1.30096 0.0103,-2.60112 0.002,-3.90208 z"
         id="path63"
         style="opacity:1;fill:#5f68c3;stroke-width:0.079375" />
    </g>
    <path
       transform="matrix(0.26458333,0,0,0.26458333,65.337919,129.56114)"
       id="path862"
       d="m 5.4450336,134.61366 v -5.39673 H 3.3389929 1.2329522 v -2.10604 -2.10604 h 7.2676802 c 6.5190176,0 7.2512196,0.0429 7.1078876,0.41641 -0.08789,0.22903 -0.159793,1.17675 -0.159793,2.10604 v 1.68963 h -2.106041 -2.106041 v 5.39673 5.39673 H 8.3408395 5.4450336 Z"
       style="fill:#000000;stroke-width:0.263255" />
    <path
       transform="matrix(0.26458333,0,0,0.26458333,65.337919,129.56114)"
       id="path864"
       d="m 14.395706,139.77789 c 0,-0.13768 1.243881,-3.47974 2.764179,-7.42681 1.520298,-3.94707 2.764178,-7.21469 2.764178,-7.26136 0,-0.0467 1.407852,-0.0849 3.12856,-0.0849 h 3.12856 l 0.670036,1.77697 c 0.36852,0.97734 1.550775,4.08704 2.627233,6.91045 1.076457,2.82341 2.041831,5.40412 2.145276,5.73491 l 0.188081,0.60144 -2.832029,-0.0749 -2.832029,-0.0749 -1.460693,-4.40952 c -0.803382,-2.42524 -1.525152,-4.40952 -1.603934,-4.40952 -0.07878,0 -0.800552,1.98428 -1.603933,4.40952 l -1.460694,4.40952 -2.811395,0.0747 c -1.654262,0.044 -2.811396,-0.0283 -2.811396,-0.17559 z"
       style="fill:#000000;stroke-width:0.263255" />
    <path
       transform="matrix(0.26458333,0,0,0.26458333,65.337919,129.56114)"
       id="path866"
       d="m 34.929603,134.48203 v -5.2651 h -2.106041 -2.10604 v -2.10604 -2.10604 h 7.107887 7.107887 v 2.10604 2.10604 h -2.106041 -2.10604 v 5.2651 5.2651 h -2.895806 -2.895806 z"
       style="fill:#000000;stroke-width:0.263255" />
    <path
       transform="matrix(0.26458333,0,0,0.26458333,65.337919,129.56114)"
       id="path868"
       d="m 43.880276,139.63734 c 0,-0.10242 4.697393,-12.43293 5.398844,-14.17179 0.162146,-0.40196 0.57895,-0.4607 3.268765,-0.4607 h 3.082921 l 2.143705,5.59417 c 1.179037,3.07679 2.443488,6.39381 2.80989,7.37114 l 0.666186,1.77697 -2.82773,-5e-4 -2.82773,-5.1e-4 -1.447903,-4.21107 c -0.796347,-2.31608 -1.524813,-4.21129 -1.618815,-4.21157 -0.094,-2.8e-4 -0.80479,1.86531 -1.579531,4.14576 l -1.408618,4.14627 -2.829992,0.0747 c -1.556496,0.0411 -2.829992,0.0173 -2.829992,-0.0529 z"
       style="fill:#000000;stroke-width:0.263255" />
    <path
       transform="matrix(0.26458333,0,0,0.26458333,65.337919,129.56114)"
       id="path870"
       d="m 73.298497,139.38599 c -3.411774,-1.26748 -5.18042,-5.27465 -4.047755,-9.17088 0.598101,-2.05739 2.336495,-3.94533 4.32268,-4.69452 1.21113,-0.45684 1.911083,-0.54606 3.608622,-0.45996 2.648528,0.13433 3.014907,0.32734 2.720205,1.43297 l -0.221397,0.83061 -2.055465,-0.14088 c -1.70044,-0.11655 -2.264022,-0.0486 -3.262939,0.39324 -2.091186,0.92503 -3.146658,3.50394 -2.570306,6.28021 0.353147,1.7011 1.435817,3.08491 2.753934,3.51993 1.007274,0.33243 3.124421,0.40131 4.312757,0.1403 0.748315,-0.16435 0.803884,-0.11994 0.972137,0.77692 0.09815,0.52319 0.09786,1.03184 -6.58e-4,1.13035 -0.367879,0.36788 -5.519806,0.33768 -6.531824,-0.0383 z"
       style="fill:#000000;stroke-width:0.263255" />
    <path
       transform="matrix(0.26458333,0,0,0.26458333,65.337919,129.56114)"
       id="path872"
       d="m 85.596414,139.59146 c -1.583242,-0.56215 -2.896001,-1.78089 -3.709695,-3.44402 -0.607891,-1.24249 -0.726329,-1.8285 -0.730504,-3.61439 -0.0078,-3.33307 1.336513,-5.70547 3.912723,-6.90511 2.709121,-1.26153 6.185421,-0.54627 8.001923,1.64643 2.457588,2.96655 2.022215,8.57012 -0.86266,11.10307 -1.665109,1.46199 -4.465322,1.97615 -6.611787,1.21402 z m 4.094354,-2.17887 c 1.441217,-0.77264 2.237261,-2.57798 2.218014,-5.03022 -0.02662,-3.39119 -1.419642,-5.27231 -3.902968,-5.2705 -2.738274,0.002 -4.094475,1.72221 -4.104984,5.20676 -0.0084,2.78208 0.797631,4.4672 2.495142,5.2165 1.112615,0.49112 2.227467,0.44966 3.294796,-0.12254 z"
       style="fill:#000000;stroke-width:0.263255" />
    <path
       transform="matrix(0.26458333,0,0,0.26458333,65.337919,129.56114)"
       id="path874"
       d="m 97.057803,132.50762 v -7.23952 h 1.558168 1.558169 l 2.23718,3.75139 c 1.23046,2.06326 2.56786,4.43256 2.97201,5.2651 0.40416,0.83255 0.799,1.51374 0.87743,1.51376 0.0784,2e-5 0.10062,-2.36927 0.0493,-5.2651 l -0.0933,-5.26515 h 1.21212 1.21212 v 7.23952 7.23951 h -1.29761 -1.29761 l -1.92294,-3.22487 c -1.05762,-1.77368 -2.54286,-4.40952 -3.30053,-5.85743 l -1.37758,-2.63255 -0.0088,5.85743 -0.0088,5.85742 h -1.18468 -1.184647 z"
       style="fill:#000000;stroke-width:0.263255" />
    <path
       transform="matrix(0.26458333,0,0,0.26458333,65.337919,129.56114)"
       id="path876"
       d="m 112.12173,139.35153 c -0.76037,-0.33039 -0.84242,-0.46222 -0.68996,-1.10852 0.25693,-1.08919 0.36239,-1.12627 2.06851,-0.72738 1.69771,0.39692 3.33613,0.20381 4.01293,-0.47299 0.48309,-0.48309 0.52266,-1.89378 0.0685,-2.44104 -0.19408,-0.23385 -1.36702,-0.92815 -2.60654,-1.54289 -2.57864,-1.27888 -3.43832,-2.25244 -3.43832,-3.89378 0,-1.76694 1.12066,-3.27468 2.86928,-3.86036 1.6563,-0.55475 5.55488,-0.22032 5.55488,0.47651 0,0.10902 -0.12779,0.56481 -0.28398,1.01287 -0.2545,0.73005 -0.35197,0.78881 -0.93853,0.5658 -1.03105,-0.39201 -3.32698,-0.29925 -3.98401,0.16095 -0.70846,0.49623 -0.80093,1.97592 -0.15744,2.51958 0.2352,0.19871 1.38759,0.83516 2.56086,1.41432 2.74303,1.35404 3.42093,2.25585 3.2742,4.35567 -0.19132,2.73783 -1.8373,3.94393 -5.35862,3.92656 -1.20524,-0.006 -2.45377,-0.16892 -2.95174,-0.3853 z"
       style="fill:#000000;stroke-width:0.263255" />
    <path
       transform="matrix(0.26458333,0,0,0.26458333,65.337919,129.56114)"
       id="path878"
       d="m 126.73732,139.63412 c -1.7592,-0.62776 -2.65243,-1.57762 -3.2188,-3.4229 -0.29403,-0.958 -0.39846,-2.56209 -0.39846,-6.12068 v -4.82244 h 1.31627 1.31628 v 5.02788 c 0,4.10819 0.0787,5.19377 0.43038,5.93484 0.73441,1.54766 2.48063,2.08759 4.07877,1.26116 1.34846,-0.69732 1.54571,-1.61788 1.54571,-7.21357 v -5.01031 h 1.33568 1.33568 l -0.0852,5.33092 c -0.0788,4.92745 -0.12986,5.41444 -0.67511,6.4345 -1.30382,2.43922 -4.30275,3.55636 -6.98118,2.6006 z"
       style="fill:#000000;stroke-width:0.263255" />
    <path
       transform="matrix(0.26458333,0,0,0.26458333,65.337919,129.56114)"
       id="path880"
       d="m 137.59909,132.50762 v -7.23952 h 1.31627 1.31628 v 6.1865 6.18649 h 3.02743 3.02743 v 1.05302 1.05302 h -4.34371 -4.3437 z"
       style="fill:#000000;stroke-width:0.263255" />
    <path
       transform="matrix(0.26458333,0,0,0.26458333,65.337919,129.56114)"
       id="path882"
       d="m 148.91905,133.57171 v -6.17542 l -2.04022,-0.0769 -2.04023,-0.0769 -0.0807,-0.96998 -0.0807,-0.96997 2.77905,-0.0831 c 1.52847,-0.0457 4.02292,-0.0458 5.54322,-2.9e-4 l 2.76418,0.0828 v 1.03608 1.03609 h -2.10604 -2.10605 v 6.18649 6.18649 h -1.31627 -1.31628 z"
       style="fill:#000000;stroke-width:0.263255" />
    <path
       transform="matrix(0.26458333,0,0,0.26458333,65.337919,129.56114)"
       id="path884"
       d="m 155.08889,139.28644 c 0.0827,-0.25339 1.13129,-3.48108 2.33011,-7.17266 2.14141,-6.59417 2.19324,-6.71431 2.95345,-6.84599 0.42558,-0.0737 1.19719,-0.0937 1.7147,-0.0443 l 0.94092,0.0897 2.20989,6.88788 c 1.21545,3.78834 2.26167,7.04269 2.32495,7.23189 0.0872,0.26072 -0.22317,0.32445 -1.28198,0.26325 l -1.39702,-0.0807 -0.62217,-2.04997 -0.62216,-2.04996 -2.40468,0.0755 -2.40468,0.0756 -0.6198,2.04023 -0.61979,2.04022 h -1.32609 c -1.14476,0 -1.30553,-0.063 -1.17565,-0.46069 z m 7.94947,-6.05487 c -0.71748,-2.50501 -1.7998,-5.88874 -1.86047,-5.8165 -0.12549,0.1494 -1.72863,5.72492 -1.72863,6.01196 0,0.15313 0.7864,0.26524 1.86052,0.26524 1.6467,0 1.84536,-0.053 1.72858,-0.4607 z"
       style="fill:#000000;stroke-width:0.263255" />
    <path
       transform="matrix(0.26458333,0,0,0.26458333,65.337919,129.56114)"
       id="path886"
       d="m 169.97946,132.49448 v -7.25265 l 1.48173,0.079 1.48173,0.079 2.2168,3.68557 c 1.21924,2.02707 2.58262,4.42598 3.02974,5.33092 0.44713,0.90494 0.84393,1.64534 0.88179,1.64534 0.0379,0 0.004,-2.42853 -0.0755,-5.39673 l -0.14434,-5.39673 h 1.22401 1.224 v 7.23952 7.23951 h -1.28525 -1.28526 l -2.49927,-4.27789 c -1.37461,-2.35284 -2.81214,-4.89984 -3.19452,-5.65999 -0.38238,-0.76014 -0.76042,-1.38208 -0.84007,-1.38208 -0.0797,0 -0.0602,2.54699 0.0432,5.65998 l 0.18806,5.65998 h -1.22344 -1.22344 z"
       style="fill:#000000;stroke-width:0.263255" />
    <path
       transform="matrix(0.26458333,0,0,0.26458333,65.337919,129.56114)"
       id="path888"
       d="m 188.18015,139.40084 c -2.50497,-0.94651 -4.34228,-3.74885 -4.34397,-6.62561 -0.002,-3.18215 1.25806,-5.45854 3.79073,-6.84899 1.3331,-0.73187 1.63537,-0.78976 4.12375,-0.78976 1.54443,0 2.80403,0.11883 2.96491,0.27971 0.1583,0.1583 0.20696,0.64341 0.11212,1.11763 l -0.16759,0.83793 -1.7798,-0.16542 c -2.29207,-0.21302 -3.46653,0.0195 -4.50269,0.89135 -2.47278,2.08071 -2.40666,7.01672 0.11811,8.81762 0.72419,0.51656 1.17538,0.59697 3.45437,0.61566 l 2.62139,0.0215 0.22361,0.86295 c 0.12299,0.47463 0.14936,0.93722 0.0586,1.02798 -0.33146,0.33146 -5.77557,0.29675 -6.67354,-0.0425 z"
       style="fill:#000000;stroke-width:0.263255" />
    <path
       transform="matrix(0.26458333,0,0,0.26458333,65.337919,129.56114)"
       id="path890"
       d="m 200.60442,136.62924 0.0196,-3.1179 -2.15951,-3.99608 c -1.18773,-2.19784 -2.15951,-4.05257 -2.15951,-4.12161 0,-0.069 0.60223,-0.12555 1.33828,-0.12555 h 1.33828 l 1.48999,3.15907 c 0.81949,1.73748 1.54999,3.15866 1.62334,3.15818 0.0733,-4.7e-4 0.78119,-1.42205 1.573,-3.15906 l 1.43966,-3.15819 h 1.41284 1.41285 l -0.6299,1.11884 c -0.34644,0.61536 -1.38724,2.46757 -2.31288,4.11602 l -1.68299,2.99718 -0.11137,3.1235 -0.11136,3.12349 h -1.24993 -1.24993 l 0.0196,-3.11789 z"
       style="fill:#000000;stroke-width:0.263255" />
    <path
       transform="matrix(0.26458333,0,0,0.26458333,65.337919,129.56114)"
       id="path892"
       d="m 214.73282,139.40321 c -0.50676,-0.17282 -0.89177,-0.40306 -0.85557,-0.51165 0.0362,-0.1086 0.0676,-0.40476 0.0698,-0.65814 0.009,-0.9862 0.38321,-1.20563 1.45451,-0.85207 0.54703,0.18053 1.65486,0.32231 2.46186,0.31506 1.24999,-0.0112 1.55566,-0.11594 2.06412,-0.70707 0.73208,-0.85109 0.76494,-1.81271 0.0852,-2.49249 -0.28143,-0.28143 -1.37723,-0.9166 -2.4351,-1.41148 -1.05788,-0.49488 -2.27882,-1.27935 -2.71319,-1.74326 -0.66749,-0.71289 -0.78976,-1.05477 -0.78976,-2.20828 0,-1.69529 0.79342,-2.92352 2.34325,-3.62737 1.2354,-0.56105 3.65889,-0.65685 5.16923,-0.20434 l 0.99219,0.29727 -0.34059,0.95319 c -0.21001,0.58775 -0.47776,0.91169 -0.69839,0.84495 -0.19679,-0.0595 -1.14479,-0.16103 -2.10666,-0.22556 -1.51905,-0.1019 -1.82173,-0.0444 -2.30348,0.43731 -0.67404,0.67404 -0.72102,1.90495 -0.0939,2.46124 0.25338,0.22478 1.28953,0.78204 2.30255,1.23836 2.14446,0.96598 3.16161,1.84992 3.57698,3.10851 0.58838,1.78282 -0.44503,4.01578 -2.23464,4.82854 -1.25847,0.57153 -4.48355,0.65681 -5.94838,0.15728 z"
       style="fill:#000000;stroke-width:0.263255" />
    <path
       transform="matrix(0.26458333,0,0,0.26458333,65.337919,129.56114)"
       id="path894"
       d="m 225.52628,132.50762 v -7.23952 h 4.21208 4.21209 v 1.05302 1.05303 h -2.89581 -2.89581 v 1.84278 1.84279 h 2.76418 2.76418 v 1.05302 1.05302 h -2.76418 -2.76418 v 2.23767 2.23766 h 2.99673 c 2.88519,0 3.00264,0.0221 3.15547,0.59233 0.41958,1.56565 0.56743,1.51371 -4.30941,1.51371 h -4.47534 z"
       style="fill:#000000;stroke-width:0.263255" />
    <path
       transform="matrix(0.26458333,0,0,0.26458333,65.337919,129.56114)"
       id="path896"
       d="m 236.84625,132.53008 v -7.21705 l 2.00147,-0.18756 c 4.71705,-0.44202 7.28754,0.73542 7.65949,3.50853 0.11494,0.85695 0.006,1.32069 -0.52398,2.22453 -0.36805,0.62804 -0.97769,1.30699 -1.35475,1.50879 l -0.68557,0.36691 0.77953,0.80809 c 0.55125,0.57144 0.97808,1.50192 1.45752,3.17738 0.3729,1.30311 0.73406,2.52352 0.80259,2.71202 0.0943,0.25943 -0.20682,0.32341 -1.23911,0.26325 l -1.36371,-0.0795 -0.70445,-2.45667 c -0.38745,-1.35117 -0.89182,-2.64403 -1.12082,-2.87304 -0.23734,-0.23734 -1.03605,-0.46776 -1.85752,-0.53588 l -1.44114,-0.11951 0.15062,3.05836 0.15062,3.05836 h -1.35539 -1.3554 z m 5.64725,-1.05319 c 0.49046,-0.20493 1.01975,-0.61177 1.17619,-0.90409 0.42484,-0.79381 0.34387,-2.01396 -0.17625,-2.65597 -0.55164,-0.68093 -2.22865,-1.11704 -3.44838,-0.89678 -0.81642,0.14744 -0.86998,0.21755 -0.72395,0.9477 0.0867,0.43367 0.15769,1.48447 0.15769,2.33511 v 1.54662 h 1.06148 c 0.58381,0 1.46276,-0.16767 1.95322,-0.37259 z"
       style="fill:#000000;stroke-width:0.263255" />
    <path
       transform="matrix(0.26458333,0,0,0.26458333,65.337919,129.56114)"
       id="path898"
       d="m 252.56677,139.56214 c -0.0667,-0.11544 -0.72573,-2.16456 -1.46456,-4.5536 -0.73883,-2.38904 -1.75307,-5.55797 -2.25387,-7.04207 l -0.91054,-2.69837 h 1.40396 1.40395 l 0.54521,1.77698 c 0.29986,0.97733 1.0522,3.58167 1.67187,5.78742 0.61967,2.20575 1.2037,4.01234 1.29785,4.01464 0.0942,0.002 0.3167,-0.61775 0.49455,-1.3779 0.17785,-0.76015 0.96477,-3.36638 1.7487,-5.79161 l 1.42534,-4.40953 h 1.32273 c 1.17943,0 1.30554,0.0542 1.16408,0.49987 -0.0873,0.27492 -1.20358,3.50309 -2.48071,7.1737 l -2.32206,6.67384 -1.46263,0.0782 c -0.80445,0.043 -1.51719,-0.0162 -1.58387,-0.13162 z"
       style="fill:#000000;stroke-width:0.263255" />
    <path
       transform="matrix(0.26458333,0,0,0.26458333,65.337919,129.56114)"
       id="path900"
       d="m 262.38199,132.50762 v -7.23952 h 1.31628 1.31628 v 7.23952 7.23951 h -1.31628 -1.31628 z"
       style="fill:#000000;stroke-width:0.263255" />
    <path
       transform="matrix(0.26458333,0,0,0.26458333,65.337919,129.56114)"
       id="path902"
       d="m 271.13481,139.08062 c -2.66626,-1.34474 -3.90933,-3.73632 -3.69313,-7.10527 0.21235,-3.30887 2.25654,-5.90799 5.29609,-6.73382 1.04291,-0.28335 5.30259,-0.19812 5.61302,0.11231 0.0781,0.0781 0.0624,0.61315 -0.0348,1.18894 -0.1742,1.03108 -0.1895,1.04329 -1.01161,0.80751 -1.34885,-0.38685 -3.38794,-0.26544 -4.57218,0.27223 -2.8649,1.3007 -3.62815,5.99216 -1.38964,8.54169 1.13144,1.28863 2.00653,1.56143 4.57618,1.42656 l 2.21214,-0.11611 0.15814,0.79072 c 0.087,0.43489 0.0326,0.91658 -0.12095,1.07042 -0.1535,0.15384 -1.48771,0.31624 -2.96491,0.3609 -2.4687,0.0746 -2.79757,0.0248 -4.06832,-0.61608 z"
       style="fill:#000000;stroke-width:0.263255" />
    <path
       transform="matrix(0.26458333,0,0,0.26458333,65.337919,129.56114)"
       id="path904"
       d="m 280.80985,132.50762 v -7.23952 h 4.21208 4.21208 v 1.05302 1.05303 h -2.8958 -2.89581 v 1.84278 1.84279 h 2.76418 2.76418 v 1.05302 1.05302 h -2.76418 -2.76418 v 2.23767 2.23766 h 2.99978 2.99979 l 0.10042,1.05302 0.10042,1.05302 h -4.41648 -4.41648 z"
       style="fill:#000000;stroke-width:0.263255" />
    <path
       transform="matrix(0.26458333,0,0,0.26458333,65.337919,129.56114)"
       id="path906"
       d="m 292.42701,139.44435 c -0.83859,-0.24124 -0.87908,-0.30697 -0.73521,-1.19353 0.1967,-1.21212 0.25258,-1.25239 1.25363,-0.90342 0.46337,0.16153 1.59483,0.29369 2.51436,0.29369 1.88771,0 2.7249,-0.53104 2.7249,-1.72846 0,-1.19329 -0.52275,-1.71623 -2.73031,-2.7313 -3.4933,-1.60627 -4.50113,-3.36592 -3.28326,-5.73248 0.84771,-1.64725 2.33009,-2.44456 4.54126,-2.44253 0.88216,8.1e-4 2.03508,0.12122 2.56205,0.26759 l 0.95811,0.26613 -0.26986,1.06315 c -0.2101,0.82775 -0.36395,1.02374 -0.69485,0.88518 -0.69161,-0.28962 -2.84482,-0.45492 -3.56646,-0.27379 -0.89242,0.22398 -1.56989,1.28737 -1.35801,2.13158 0.12611,0.50247 0.68173,0.91688 2.33251,1.73974 1.19182,0.59408 2.55196,1.44679 3.02253,1.8949 0.7983,0.7602 0.85558,0.9323 0.85558,2.57039 0,2.06902 -0.51167,2.92222 -2.21697,3.69673 -1.19005,0.54049 -4.34903,0.64548 -5.91,0.19643 z"
       style="fill:#000000;stroke-width:0.263255" />
    <path
       transform="matrix(0.26458333,0,0,0.26458333,65.337919,129.56114)"
       id="path908"
       d="m 176.03433,107.4031 c 0,-0.1248 2.32103,-6.25536 5.15784,-13.62345 2.83681,-7.368096 5.3931,-14.020562 5.68063,-14.78326 l 0.52279,-1.386722 6.35264,0.07045 6.35263,0.07045 1.79409,4.606964 c 0.98675,2.53383 3.34475,8.693999 5.24001,13.689264 1.89525,4.995274 3.66848,9.647274 3.9405,10.337794 l 0.49459,1.2555 -5.82001,-0.0708 -5.82,-0.0708 -2.97315,-8.641449 c -2.84494,-8.268814 -3.15987,-9.092149 -3.38254,-8.843084 -0.0539,0.06033 -1.43848,4.048644 -3.07677,8.862921 l -2.97871,8.753232 h -5.74227 c -3.15825,0 -5.74227,-0.10211 -5.74227,-0.22691 z"
       style="fill:#000000;stroke-width:0.263255" />
    <path
       transform="matrix(0.26458333,0,0,0.26458333,65.337919,129.56114)"
       id="path910"
       d="M 158.13298,96.836556 V 86.043097 h -4.37661 -4.37662 l 0.16453,-0.822672 c 0.0905,-0.45247 0.16454,-2.347906 0.16454,-4.212081 v -3.38941 h 14.47903 14.47903 v 4.212082 4.212081 h -4.17379 -4.1738 l -0.18669,3.599397 c -0.10268,1.979668 -0.10223,6.836725 0.001,10.793456 l 0.18769,7.19406 h -6.09415 -6.09416 z"
       style="fill:#000000;stroke-width:0.263255" />
    <path
       transform="matrix(0.26458333,0,0,0.26458333,65.337919,129.56114)"
       id="path912"
       d="m 116.80193,107.46821 c 0,-0.11684 9.35705,-24.677356 11.19643,-29.388579 0.16441,-0.421085 0.72635,-0.460664 6.53564,-0.460323 l 6.35577,3.74e-4 1.38347,3.619384 c 0.7609,1.990661 3.32673,8.713369 5.70182,14.939352 l 4.31837,11.319972 -5.6834,0.0711 c -3.12587,0.0391 -5.76491,-0.0201 -5.86455,-0.13163 -0.0996,-0.11149 -1.51807,-4.14717 -3.15208,-8.968179 -1.63402,-4.821009 -3.05371,-8.671114 -3.15488,-8.55579 -0.10116,0.115324 -1.52732,4.148634 -3.16925,8.962911 l -2.98532,8.753228 h -5.74101 c -3.15755,0 -5.74101,-0.0728 -5.74101,-0.1618 z"
       style="fill:#000000;stroke-width:0.263255" />
    <path
       transform="matrix(0.26458333,0,0,0.26458333,65.337919,129.56114)"
       id="path914"
       d="M 98.900588,96.836556 V 86.043097 h -4.212081 -4.212081 v -4.212081 -4.212082 h 14.479034 14.47902 v 4.212082 4.212081 h -4.21208 -4.21208 v 10.793459 10.793454 h -6.05486 -6.054872 z"
       style="fill:#000000;stroke-width:0.263255" />
    <path
       transform="matrix(0.26458333,0,0,0.26458333,65.337919,129.56114)"
       id="path916"
       d="m 132.68565,59.053652 c -8.43276,-2.59117 -14.30881,-5.906668 -19.33022,-10.906872 -5.67724,-5.653271 -8.10498,-11.199759 -7.78336,-17.782133 0.1801,-3.686043 0.27358,-3.982264 1.31464,-4.165597 12.50606,-2.20234 18.73685,-3.059354 27.09979,-3.727442 5.86256,-0.46834 6.72716,-0.367252 7.96883,0.931697 0.77064,0.806181 0.77697,0.838048 0.74682,3.755583 -0.0275,2.666755 -0.31743,4.329343 -3.09324,17.741396 -1.68457,8.139392 -3.06284,14.862269 -3.06284,14.939726 0,0.294485 -1.01724,0.08728 -3.86042,-0.786358 z"
       style="fill:#000000;stroke-width:0.263255" />
    <path
       transform="matrix(0.26458333,0,0,0.26458333,65.337919,129.56114)"
       id="path918"
       d="m 165.64111,59.651775 c -0.0604,-0.180988 -0.64297,-2.994527 -1.29468,-6.252308 -0.65171,-3.257782 -2.02484,-10.010275 -3.05139,-15.00554 -2.61386,-12.719197 -2.59711,-14.475794 0.1507,-15.805988 1.28682,-0.622938 1.46567,-0.619968 9.85,0.163543 7.4651,0.697612 22.69082,2.920941 24.12685,3.523116 0.77932,0.326794 1.27288,3.291266 1.05341,6.327144 -0.68957,9.538561 -7.87174,18.141218 -19.82053,23.740606 -2.22525,1.042788 -9.71428,3.638496 -10.49763,3.638496 -0.22384,0 -0.45637,-0.148081 -0.51673,-0.329069 z"
       style="fill:#000000;stroke-width:0.263255" />
    <path
       transform="matrix(0.26458333,0,0,0.26458333,65.337919,129.56114)"
       id="path920"
       d="m 148.98343,40.002858 c 0.10741,-15.955637 0.0666,-21.71248 -0.15707,-22.153862 -0.68024,-1.342405 -1.47821,-1.629828 -4.41883,-1.591638 -7.94223,0.103146 -24.27303,2.275436 -33.76378,4.491188 -1.28755,0.300596 -2.38514,0.502388 -2.4391,0.448429 -0.286,-0.285993 2.89492,-4.519974 4.87072,-6.483225 6.51652,-6.4751004 15.31822,-10.7012912 26.62976,-12.7864461 2.92093,-0.5384409 14.89727,-0.95835408 17.90134,-0.627655 12.27353,1.3511155 22.59388,5.5106289 29.99452,12.0889891 2.05238,1.824343 4.33345,4.508642 5.37289,6.32267 0.87091,1.51992 0.8221,1.545094 -1.80239,0.929523 -2.48509,-0.582878 -11.47913,-2.181341 -15.53205,-2.760432 -6.04118,-0.863178 -11.30443,-1.357577 -16.19122,-1.520909 l -4.608,-0.154014 -0.85454,0.719052 -0.85454,0.719051 v 21.958397 21.958398 h -2.14642 -2.14641 z"
       style="fill:#000000;stroke-width:0.263255" />
  </g>
</svg>
