<?xml version="1.0" encoding="UTF-8" standalone="no"?>
<svg
   xmlns:dc="http://purl.org/dc/elements/1.1/"
   xmlns:cc="http://creativecommons.org/ns#"
   xmlns:rdf="http://www.w3.org/1999/02/22-rdf-syntax-ns#"
   xmlns:svg="http://www.w3.org/2000/svg"
   xmlns="http://www.w3.org/2000/svg"
   xmlns:sodipodi="http://sodipodi.sourceforge.net/DTD/sodipodi-0.dtd"
   xmlns:inkscape="http://www.inkscape.org/namespaces/inkscape"
   inkscape:version="1.0 (4035a4fb49, 2020-05-01)"
   sodipodi:docname="web-developer.svg"
   version="1.1"
   viewBox="0 0 538.0639 484.78079"
   height="484.78079"
   width="538.0639"
   data-name="Layer 1"
   id="ade8c9af-7e2e-4eda-b5c8-b06129257226">
  <metadata
     id="metadata97">
    <rdf:RDF>
      <cc:Work
         rdf:about="">
        <dc:format>image/svg+xml</dc:format>
        <dc:type
           rdf:resource="http://purl.org/dc/dcmitype/StillImage" />
      </cc:Work>
    </rdf:RDF>
  </metadata>
  <defs
     id="defs95" />
  <sodipodi:namedview
     inkscape:current-layer="ade8c9af-7e2e-4eda-b5c8-b06129257226"
     inkscape:window-maximized="1"
     inkscape:window-y="-11"
     inkscape:window-x="-11"
     inkscape:cy="351.35211"
     inkscape:cx="144.96552"
     inkscape:zoom="2.9961044"
     showgrid="false"
     id="namedview93"
     inkscape:window-height="986"
     inkscape:window-width="1920"
     inkscape:pageshadow="2"
     inkscape:pageopacity="0"
     guidetolerance="10"
     gridtolerance="10"
     objecttolerance="10"
     borderopacity="1"
     bordercolor="#666666"
     pagecolor="#ffffff"
     inkscape:document-rotation="0" />
  <title
     id="title2">web_developer</title>
  <path
     id="path8"
     fill="#2f2e41"
     d="m 144.73407,331.36123 h 36.8414 l 90.78774,-35.52564 c 0,0 64.47245,-26.31528 59.20939,23.68376 -5.26306,49.99904 -14.47341,117.103 -14.47341,117.103 0,0 -28.94681,-13.15764 -44.736,-9.21035 -15.78919,3.94729 -5.26306,-80.26162 -5.26306,-80.26162 0,0 -128.9449,61.84092 -140.78678,53.94634 -11.84188,-7.89458 -14.4734,-63.15669 -14.4734,-63.15669 z" />
  <path
     style="fill:#007acc;fill-opacity:1"
     id="path10"
     opacity="0.1"
     d="m 144.73407,331.36123 h 36.8414 l 90.78774,-35.52564 c 0,0 64.47245,-26.31528 59.20939,23.68376 -5.26306,49.99904 -14.47341,117.103 -14.47341,117.103 0,0 -28.94681,-13.15764 -44.736,-9.21035 -15.78919,3.94729 -5.26306,-80.26162 -5.26306,-80.26162 0,0 -128.9449,61.84092 -140.78678,53.94634 -11.84188,-7.89458 -14.4734,-63.15669 -14.4734,-63.15669 z" />
  <path
     id="path12"
     fill="#a0616a"
     d="m 202.77793,215.98721 44.58576,64.05921 103.94537,86.84043 c 0,0 96.0508,22.368 82.89315,38.15717 -13.15765,15.78917 -93.41926,-15.78917 -93.41926,-15.78917 0,0 -119.73455,-86.84044 -123.68184,-93.41927 -3.94729,-6.57883 -47.36751,-68.41973 -47.36751,-68.41973 z" />
  <path
     id="path14"
     opacity="0.1"
     d="m 202.77793,215.98721 44.58576,64.05921 103.94537,86.84043 c 0,0 96.0508,22.368 82.89315,38.15717 -13.15765,15.78917 -93.41926,-15.78917 -93.41926,-15.78917 0,0 -119.73455,-86.84044 -123.68184,-93.41927 -3.94729,-6.57883 -47.36751,-68.41973 -47.36751,-68.41973 z" />
  <path
     id="path20"
     fill="#2f2e41"
     d="m 529.45116,302.06729 8.5507,35.27156 a 2.20311,2.20311 0 0 1 -0.0428,1.19048 l -38.78765,121.21126 a 2.20306,2.20306 0 0 1 -4.28722,-0.42269 l -5.36581,-47.21916 a 2.203,2.203 0 0 1 0.0943,-0.93128 l 35.60278,-109.26361 a 2.20306,2.20306 0 0 1 4.2357,0.16344 z" />
  <polygon
     id="polygon22"
     fill="#f2f2f2"
     points="499.99,716.28 492.096,682.07 526.306,575.493 534.2,605.756 "
     transform="translate(0,-270.4471)" />
  <path
     id="path24"
     fill="#2f2e41"
     d="m 353.94059,469.51648 c 1.31577,3.94729 136.83949,-1.31577 138.15525,-2.63153 a 28.56086,28.56086 0 0 0 2.89462,-5.26306 c 1.2369,-2.63153 2.36844,-5.26306 2.36844,-5.26306 l -5.26304,-42.60445 -134.208,-4.76306 c 0,0 -3.35527,36.10458 -4.03949,52.63057 -0.17087,4.17096 -0.17087,7.10508 0.0922,7.89459 z" />
  <polygon
     id="polygon26"
     opacity="0.1"
     points="418.413,726.806 418.413,689.965 474.991,689.965 477.622,726.806 "
     transform="translate(0,-270.4471)" />
  <polygon
     id="polygon28"
     opacity="0.1"
     points="397.361,717.596 364.467,717.596 364.467,701.806 398.677,701.806 399.03,701.736 "
     transform="translate(0,-270.4471)" />
  <path
     id="path30"
     opacity="0.1"
     d="m 353.94059,469.51648 c 1.31577,3.94729 136.83949,-1.31577 138.15525,-2.63153 a 28.56086,28.56086 0 0 0 2.89462,-5.26306 H 353.8484 c -0.1709,4.17096 -0.1709,7.10508 0.0922,7.89459 z" />
  <circle
     id="circle32"
     fill="#a0616a"
     r="59.209389"
     cy="86.629074"
     cx="196.04887" />
  <path
     id="path34"
     fill="#a0616a"
     d="m 192.10159,139.25965 c 0,0 -19.73647,34.20987 -23.68376,52.63057 -3.94729,18.4207 -59.20939,-36.8414 -59.20939,-36.8414 l -7.2367,-19.07858 c 0,0 51.97268,-24.34164 48.02539,-44.078108 -3.94729,-19.73647 42.10446,47.367518 42.10446,47.367518 z" />
  <path
     id="path36"
     fill="#a0616a"
     d="m 202.6277,241.88926 53.94634,71.05127 128.9449,96.05079 c 0,0 93.41926,19.73647 72.367,34.20987 -21.05226,14.4734 -81.57738,-13.15764 -81.57738,-13.15764 0,0 -130.26064,-69.73551 -157.8917,-98.68232 -27.63106,-28.94681 -78.94585,-77.63009 -78.94585,-77.63009 z" />
  <path
     style="fill:#00406b;fill-opacity:1"
     id="path38"
     fill="#2f2e41"
     d="m 130.26067,352.41346 15.78919,24.99952 94.2313,-29.64581 c 20.67581,-6.50474 43.34783,-4.11124 61.68676,7.44229 16.44706,10.36164 26.97317,26.80869 3.28941,51.15033 -47.36751,48.68328 -78.94585,22.368 -78.94585,22.368 0,0 -159.2075,74.99856 -185.52278,38.15716 -26.31528,-36.8414 -27.631,-55.2621 -27.631,-55.2621 0,0 101.3138,-63.15669 117.10297,-59.20939 z" />
  <path
     style="fill:#666666"
     id="path40"
     fill="#d0cde1"
     d="m 327.62531,439.2539 c 0,0 42.10445,27.63105 -7.89459,40.78869 -49.99904,13.15764 -86.84044,-5.26306 -86.84044,-5.26306 0,0 -43.42022,0 -43.42022,-22.368 0,-22.368 14.47341,-24.99952 14.47341,-24.99952 l 44.736,6.57882 c 0,0 53.94632,-14.47339 78.94584,5.26307 z" />
  <path
     id="path42"
     fill="#2f2e41"
     d="m 244.62111,71.734622 c 4.03,1.79653 8.02621,3.92291 12.40755,4.4444 4.38134,0.52149 9.37055,-1.00819 11.44376,-4.903 1.11982,-2.10373 1.24778,-4.57826 1.3,-6.96089 0.15849,-7.22517 -0.36406,-15.03591 -4.94264,-20.6274 -2.9139,-3.55854 -7.16747,-5.80183 -10.18374,-9.274 -2.161,-2.48761 -3.59924,-5.50284 -5.14786,-8.41141 -5.866,-11.01725 -14.55128,-21.6055897 -26.62195,-24.7817497 -5.04041,-1.32628996 -10.328,-1.26156996 -15.53945,-1.18799996 l -30.39725,0.42884 c -4.91906,0.0694 -9.914,0.15005 -14.623,1.57382996 -9.784,2.95823 -16.90779,11.1859097 -23.43216,19.0542697 -4.88119,5.88668 -9.7753,11.83425 -13.43862,18.54685 a 65.07888,65.07888 0 0 0 -7.71423,31.88675 29.83261,29.83261 0 0 0 1.09276,8.43732 46.82177,46.82177 0 0 0 3.31627,7.28423 c 5.70049,11.19673 9.08523,25.182188 2.66543,35.982578 11.15187,-4.55542 22.18591,-10.52835 29.54232,-20.0677 3.29093,-4.267478 5.87181,-9.263158 10.25758,-12.394718 4.38577,-3.13156 11.532,-3.40321 14.34592,1.1928 a 12.85719,12.85719 0 0 1 1.4508,6.02242 c 0.20551,3.449828 0.1999,7.032578 1.66258,10.163738 1.46268,3.13116 4.94686,5.65758 8.27337,4.72061 5.72869,-1.61358 5.18009,-10.406 9.59251,-14.399998 3.35094,-3.03318 8.52074,-2.45334 12.82574,-3.83026 5.01582,-1.60428 8.77937,-5.94959 10.92379,-10.75939 1.63,-3.65594 1.60645,-13.223 4.69084,-15.20283 3.86798,-2.48287 12.66429,1.46437 16.24968,3.06271 z" />
  <path
     id="path924"
     d="m 166.57765,183.87968 c -1.30927,-1.62256 -4.88199,-5.60521 -7.93938,-8.85033 -10.35788,-10.99388 -17.23587,-19.72699 -20.58575,-26.13812 -1.06828,-2.04451 -2.68614,-4.5406 -3.59524,-5.54687 -3.29648,-3.6488 -9.9573,-7.40862 -18.70886,-10.56054 l -4.18652,-1.5078 3.24248,-1.79618 c 1.78337,-0.98789 4.62313,-2.67534 6.3106,-3.74987 1.68746,-1.07454 4.23635,-2.44951 5.66421,-3.05549 4.80401,-2.0388 11.06545,-5.32601 14.9465,-7.84679 5.52059,-3.58568 10.49199,-8.50976 15.76794,-15.617858 5.95412,-8.02178 8.52552,-9.98798 13.61373,-10.40962 2.12626,-0.1762 3.04402,-0.006 4.73429,0.87773 2.94976,1.54232 3.85194,3.55321 4.38159,9.76623 0.51244,6.011088 0.96375,7.910358 2.371,9.978068 1.59084,2.33744 3.32572,3.40735 5.93103,3.65769 2.15002,0.20659 2.48309,0.0947 4.05901,-1.36396 1.16129,-1.07486 2.33746,-3.03997 3.63494,-6.07318 3.23931,-7.572808 4.25364,-8.394588 12.23977,-9.916328 5.44711,-1.03794 8.62511,-2.56871 11.25416,-5.4209 3.14546,-3.41242 4.30609,-5.94367 5.51855,-12.03547 1.80488,-9.06844 2.55507,-10.13485 7.04338,-10.01242 3.16794,0.0864 5.5648,0.86128 14.40524,4.65697 l 7.49264,3.21701 0.37948,3.07314 c 0.20871,1.69022 0.36135,5.40962 0.33918,8.26533 -0.21581,27.802178 -20.45136,51.755928 -48.32114,57.199938 -2.69277,0.526 -6.42358,0.78676 -11.22955,0.78489 l -7.19706,-0.003 -6.33926,12.78253 c -5.8654,11.82702 -10.18522,21.70444 -11.62851,26.58904 -0.32602,1.10334 -0.73343,2.00607 -0.90536,2.00607 -0.17193,0 -1.38382,-1.32755 -2.69309,-2.95011 z"
     style="fill:#d38d5f;stroke-width:0.472017" />
  <path
     id="path926"
     d="m 434.99624,446.8639 c -12.94346,-1.03132 -30.9649,-5.8853 -49.79135,-13.41105 -8.48483,-3.39175 -17.05866,-7.9245 -49.15772,-25.98838 -14.90172,-8.386 -20.63176,-11.67995 -21.31795,-12.25473 -0.0819,-0.0686 0.5167,-1.44329 1.33022,-3.05486 1.82668,-3.61864 3.31183,-9.26943 3.27565,-12.46347 -0.0394,-3.47505 -1.40292,-8.19854 -3.28901,-11.39339 -5.65909,-9.58594 -21.13453,-19.08729 -36.80526,-22.59707 -11.26237,-2.52245 -24.85084,-2.07631 -36.75048,1.20659 l -3.47326,0.95821 -1.69805,-1.20818 c -9.14373,-6.50586 -13.98291,-10.88336 -30.84012,-27.89787 -9.77454,-9.86574 -25.12721,-25.04889 -34.11706,-33.74034 -8.98985,-8.69145 -16.28587,-16.07868 -16.21338,-16.41606 0.0725,-0.33739 2.46829,-1.43076 5.324,-2.42973 10.00161,-3.49871 26.2489,-10.37553 39.08614,-16.54356 3.16553,-1.52098 5.77487,-2.73225 5.79853,-2.69171 0.0922,0.15806 17.91446,23.69374 26.98223,35.63219 5.25833,6.92301 12.5864,16.58857 16.2846,21.47901 l 6.724,8.89171 11.56443,8.61972 c 21.81287,16.25854 43.66827,32.53997 52.73051,39.2822 25.96406,19.31704 38.46191,28.64142 50.89328,37.97038 l 13.70447,10.28434 9.07936,2.15415 c 44.438,10.54328 68.72366,21.06656 66.08512,28.63549 -1.7241,4.94576 -12.78378,7.98237 -25.4089,6.97641 z"
     style="fill:#d38d5f;stroke-width:0.472017" />
  <path
     id="path928"
     d="m 408.80961,408.4388 c -7.1176,-1.01059 -15.52961,-2.82966 -25.4623,-5.50612 l -8.94169,-2.40943 -15.60322,-11.63493 c -8.58177,-6.3992 -21.01777,-15.6627 -27.63555,-20.58554 -6.61779,-4.92284 -18.01322,-13.41118 -25.3232,-18.86298 -7.30998,-5.45181 -21.37422,-15.93196 -31.25387,-23.28923 l -17.96301,-13.37687 -5.6052,-7.3919 c -3.08286,-4.06555 -14.39388,-18.96813 -25.1356,-33.11686 -10.74171,-14.14872 -19.48629,-26.04356 -19.43238,-26.43297 0.92815,-6.70494 0.49268,-10.92792 -1.61003,-15.61338 l -1.20518,-2.68551 0.81804,-3.00501 c 0.44992,-1.65275 0.94575,-3.15331 1.10186,-3.33459 0.1561,-0.18127 9.54358,12.98802 20.86105,29.26509 l 20.57721,29.59466 37.28416,31.15315 c 20.50628,17.13424 43.8997,36.69422 51.98537,43.46664 l 14.70122,12.31347 7.91638,2.02835 c 41.43994,10.6178 69.56071,21.72884 74.90748,29.59732 2.47476,3.64194 0.79113,7.18189 -4.35926,9.16565 -3.46959,1.33637 -13.58262,1.66052 -20.62228,0.66099 z"
     style="fill:#d38d5f;stroke-width:0.472017" />
  <path
     id="path930"
     d="m 14.246883,439.68925 c -4.08689,-1.85617 -7.6521703,-5.66242 -8.5116703,-9.08695 -0.28631,-1.14074 0.13894,-8.8246 0.94499,-17.07525 3.2301,-33.0629 3.6576403,-42.05709 3.8542603,-81.08362 0.1209,-23.99762 0.65237,-44.06706 1.29997,-49.08982 8.58934,-66.61878 27.86718,-111.30958 58.52649,-135.67886 7.9973,-6.35658 23.78379,-14.4114 31.358547,-16.00022 4.59504,-0.96382 5.99349,-0.84636 12.23285,1.02747 17.07226,5.12719 22.79153,9.3542 32.03837,23.67892 5.21282,8.07544 20.31729,25.23232 37.39968,42.48157 13.04138,13.16877 19.84597,21.71532 24.07386,30.23668 3.06822,6.18403 4.35029,13.29608 3.02393,16.77469 -0.96157,2.52189 -14.43483,9.08776 -36.44462,17.76041 l -13.86906,5.46492 -0.008,6.18317 c -0.0133,9.92139 -1.78773,31.80859 -3.40884,42.04725 -3.05006,19.26376 -9.38913,34.14587 -17.83084,41.86112 -5.81989,5.31905 -15.65888,10.69017 -23.59369,12.87984 -11.58375,3.19662 -13.68851,5.12394 -13.68851,12.53456 0,5.99077 -4.294617,13.05712 -13.639377,22.44215 -10.64043,10.6865 -23.37151,19.83168 -36.86628,26.48248 -16.2047,7.98638 -28.38974,10.02082 -36.89156,6.15949 z"
     style="fill:#fcd876;stroke-width:0.944035;fill-opacity:1" />
  <path
     id="path934"
     d="m 203.72731,221.80378 c -2.9664,-5.15986 -11.13711,-14.55163 -22.17063,-25.4839 l -11.49419,-11.38872 3.81658,-9.2677 3.81657,-9.2677 7.56141,13.85184 c 12.82481,23.49392 20.57281,39.52458 20.21057,41.81578 -0.34195,2.16276 -0.34824,2.16182 -1.74031,-0.2596 z"
     style="fill:#fcd845;fill-opacity:1;stroke-width:0.991563" />
  <path
     sodipodi:nodetypes="sssscccccssssss"
     id="path936"
     d="m 142.55746,368.33439 c -2.75518,-4.63499 -5.84422,-8.03388 -4.17499,-6.9536 1.80987,1.17132 2.36617,-2.31783 3.83038,-4.09632 3.10397,-3.77021 8.12516,-12.64389 9.90343,-19.79887 l 1.52213,-6.12437 9.62957,1.16818 18.14061,1.0013 12.489,-4.72577 13.32341,-4.72577 5.71206,5.10902 c 4.44592,3.97655 10.27517,10.3221 13.81262,13.22618 3.53746,2.90408 6.32583,5.37453 6.19638,5.48987 -0.12944,0.11535 -18.94031,6.47068 -41.80192,14.12295 -22.8616,7.65228 -43.52002,13.93112 -44.07187,14.15696 -0.55185,0.22584 -1.75564,-3.21477 -4.51081,-7.84976 z"
     style="fill:#00406b;fill-opacity:1;stroke-width:0.914143" />
  <path
     sodipodi:nodetypes="ssssscssss"
     id="path938"
     d="m 299.11667,322.5899 c -15.76183,-13.1732 -28.88708,-24.18048 -29.16723,-24.46063 -0.81931,-0.81931 6.17116,-3.41688 15.71416,-5.83918 4.86935,-1.23599 9.22371,-2.24725 9.67636,-2.24725 0.45264,0 14.4892,-3.29008 26.6899,3.64687 l 0.25033,0.14233 2.3617,2.50325 c 7.92273,8.39756 6.45034,22.36387 6.45034,23.01777 0,1.43773 -2.96615,26.82946 -3.15682,27.02398 -0.0885,0.0903 -13.05692,-10.61394 -28.81874,-23.78714 z"
     style="fill:#00406b;fill-opacity:1;stroke-width:0.944035" />
  <path
     id="path942"
     d="m 313.15805,431.53227 c -1.29669,-0.5171 -6.39448,-1.53409 -11.32842,-2.26 -13.1792,-1.93898 -16.3813,-2.4611 -17.7907,-2.90085 -0.72328,-0.22567 2.31705,-3.17758 7.08027,-6.87435 8.39393,-6.51459 18.38322,-16.32219 21.49225,-21.10132 l 1.67266,-2.57119 3.69472,2.09917 c 3.07561,1.74743 3.61855,2.49464 3.24017,4.45926 -0.25,1.29805 -1.12181,7.67028 -1.93737,14.16052 -2.22598,17.71446 -1.81444,16.70715 -6.12358,14.98876 z"
     style="fill:#00406b;fill-opacity:1;stroke-width:0.944035" />
  <path
     id="path944"
     d="m 127.84045,117.52046 c 1.03439,-4.91322 0.68978,-14.52838 -0.6748,-18.828318 -0.62705,-1.97587 -2.83077,-7.39665 -4.89716,-12.04617 -3.46091,-7.78728 -3.75401,-9.099 -3.71817,-16.64034 0.0726,-15.26982 4.2428,-27.02518 14.34179,-40.42755 9.32816,-12.3794 18.10441,-21.1494597 24.67482,-24.6574097 l 5.95911,-3.18158 19.35272,-0.82227996 c 28.32861,-1.20365 37.2094,-0.63497 44.57515,2.85439996 7.85272,3.72004 14.25963,10.4012097 21.33276,22.2459397 4.12937,6.91508 7.08573,10.66674 10.54711,13.38443 6.90456,5.42108 9.58407,11.30651 9.77535,21.47111 0.11627,6.17853 -0.21871,8.43793 -1.5529,10.47416 -3.59489,5.4865 -9.74964,5.55416 -22.15704,0.24357 -16.05599,-6.87225 -18.32645,-6.12238 -20.94839,6.91869 -1.99905,9.94293 -6.31146,14.24907 -16.67731,16.65307 -3.55827,0.82522 -7.04144,1.975 -7.74039,2.55507 -0.69894,0.58007 -2.61935,3.796218 -4.26757,7.146988 -3.4005,6.91308 -4.9337,8.24226 -8.48056,7.35205 -3.67807,-0.92314 -5.31693,-4.2015 -6.24722,-12.496938 -0.71651,-6.38913 -1.19169,-7.72183 -3.44397,-9.65916 -2.15814,-1.85635 -3.3407,-2.16538 -6.79604,-1.77591 -5.4263,0.61162 -7.99474,2.6041 -14.55448,11.29068 -6.15754,8.153978 -10.73299,12.171118 -20.09171,17.640028 -8.35667,4.88336 -9.28205,4.91738 -8.3111,0.30547 z"
     style="fill:#000000;fill-opacity:1;stroke-width:0.944035" />
  <path
     id="path946"
     d="m 128.49778,109.9681 c -0.0972,-9.970528 -0.17872,-10.330198 -4.65184,-20.532668 -4.38452,-10.0004 -4.55349,-10.71601 -4.56968,-19.35272 -0.0272,-14.51707 3.363,-24.70233 12.79626,-38.44389 6.55539,-9.54935 20.64367,-23.6327597 27.06503,-27.0556897 l 5.05185,-2.69291 26.1028,-0.49619 c 22.78676,-0.43314996 26.80645,-0.29163 31.6417,1.11402 10.43341,3.03307 16.40573,8.4196597 26.58409,23.9768797 3.5049,5.3571 8.19053,11.25982 10.4125,13.11716 2.22197,1.85733 5.23046,5.54575 6.68553,8.19647 2.35661,4.29306 2.64845,5.78182 2.67174,13.62937 0.0252,8.49604 -0.0682,8.89118 -2.62258,11.09241 -3.81797,3.29013 -8.45092,2.94821 -20.23805,-1.49359 -10.23681,-3.85759 -16.22493,-4.71427 -18.00023,-2.57518 -0.54819,0.66053 -1.82893,4.20415 -2.8461,7.87472 -3.45048,12.45147 -5.66707,14.8719 -16.69715,18.23264 -3.62792,1.10539 -7.0885,2.31761 -7.69018,2.69382 -0.60169,0.37622 -2.77722,3.656598 -4.83451,7.289758 -3.22111,5.68842 -4.14264,6.6462 -6.63621,6.89721 -3.88727,0.3913 -5.54966,-2.28728 -7.15736,-11.532548 -1.73569,-9.98119 -3.84642,-12.22554 -10.95229,-11.64562 -5.05675,0.4127 -5.32608,0.58401 -10.8564,6.90529 -10.21947,11.681108 -16.03736,17.027958 -22.87024,21.018568 -3.70208,2.16213 -7.08175,3.93111 -7.51038,3.93107 -0.42863,-6e-5 -0.82387,-4.56683 -0.8783,-10.14838 z"
     style="fill:#000000;fill-opacity:1;stroke-width:0.944035" />
</svg>
