<?xml version="1.0" encoding="UTF-8" standalone="no"?>
<svg
   xmlns:dc="http://purl.org/dc/elements/1.1/"
   xmlns:cc="http://creativecommons.org/ns#"
   xmlns:rdf="http://www.w3.org/1999/02/22-rdf-syntax-ns#"
   xmlns:svg="http://www.w3.org/2000/svg"
   xmlns="http://www.w3.org/2000/svg"
   xmlns:sodipodi="http://sodipodi.sourceforge.net/DTD/sodipodi-0.dtd"
   xmlns:inkscape="http://www.inkscape.org/namespaces/inkscape"
   inkscape:version="1.0 (4035a4fb49, 2020-05-01)"
   sodipodi:docname="download.svg"
   xml:space="preserve"
   style="enable-background:new 0 0 490.667 490.667;"
   viewBox="0 0 490.667 490.667"
   y="0px"
   x="0px"
   id="Capa_1"
   version="1.1"><metadata
   id="metadata41"><rdf:RDF><cc:Work
       rdf:about=""><dc:format>image/svg+xml</dc:format><dc:type
         rdf:resource="http://purl.org/dc/dcmitype/StillImage" /></cc:Work></rdf:RDF></metadata><defs
   id="defs39" /><sodipodi:namedview
   inkscape:current-layer="Capa_1"
   inkscape:window-maximized="1"
   inkscape:window-y="-11"
   inkscape:window-x="-11"
   inkscape:cy="239.20016"
   inkscape:cx="260.4624"
   inkscape:zoom="1.6304337"
   showgrid="false"
   id="namedview37"
   inkscape:window-height="986"
   inkscape:window-width="1920"
   inkscape:pageshadow="2"
   inkscape:pageopacity="0"
   guidetolerance="10"
   gridtolerance="10"
   objecttolerance="10"
   borderopacity="1"
   bordercolor="#666666"
   pagecolor="#ffffff" />
<path
   id="path2"
   d="M245.333,0C109.839,0,0,109.839,0,245.333s109.839,245.333,245.333,245.333  s245.333-109.839,245.333-245.333C490.514,109.903,380.764,0.153,245.333,0z"
   style="fill:#ffc107;fill-opacity:0" />

<g
   id="g6">
</g>
<g
   id="g8">
</g>
<g
   id="g10">
</g>
<g
   id="g12">
</g>
<g
   id="g14">
</g>
<g
   id="g16">
</g>
<g
   id="g18">
</g>
<g
   id="g20">
</g>
<g
   id="g22">
</g>
<g
   id="g24">
</g>
<g
   id="g26">
</g>
<g
   id="g28">
</g>
<g
   id="g30">
</g>
<g
   id="g32">
</g>
<g
   id="g34">
</g>
<path
   id="path866"
   d="M 226.93348,489.68894 C 152.5254,483.62626 86.739473,445.92398 44.031657,384.86692 21.013218,351.9587 6.632569,313.68121 1.7484485,272.32018 c -1.51748793,-12.8508 -1.51748793,-41.12257 0,-53.97337 C 7.4103387,170.39927 25.426331,127.64187 55.75817,90.16542 63.117697,81.072361 82.326193,62.013034 91.386727,54.813539 115.67041,35.517736 140.02736,22.190208 168.05344,12.86338 191.63458,5.0157911 213.35749,1.2431221 239.20016,0.50715917 304.38216,-1.3491325 368.039,23.497349 415.46504,69.306713 c 36.72143,35.469657 61.6013,81.887907 70.84407,132.173417 2.95917,16.09946 3.69289,24.78856 3.70303,43.85337 0.0124,23.26691 -1.63778,37.53974 -6.77194,58.57337 -8.4157,34.47747 -24.09762,66.04349 -47.38125,95.37339 -7.76511,9.78155 -27.20987,29.14639 -37.47034,37.31635 -44.30307,35.27656 -98.55617,54.12275 -154.52418,53.67789 -5.93869,-0.0472 -13.55761,-0.31071 -16.93095,-0.58556 z m 21.77335,-63.10879 c 3.23352,-0.90372 155.32369,-153.2075 156.40323,-156.62289 1.53976,-4.87142 -0.54011,-10.11452 -5.03282,-12.68712 l -2.63698,-1.50997 -38.48669,-0.17518 -38.48669,-0.17519 -0.004,-79.86486 c -0.002,-53.04518 -0.21615,-80.630851 -0.6369,-82.145834 -0.76503,-2.754617 -3.11359,-5.667786 -5.71941,-7.094413 -1.77974,-0.974508 -6.75882,-1.051303 -68.16006,-1.051303 -36.43202,0 -66.97777,0.20692 -67.87944,0.459822 -2.46209,0.690571 -5.44925,3.476229 -6.71442,6.261475 -1.0738,2.363967 -1.12654,6.204411 -1.13939,82.961083 l -0.0135,80.48236 -38.48669,0.17102 c -36.430625,0.16188 -38.612486,0.23348 -40.841427,1.34021 -4.708956,2.33813 -7.009687,8.39379 -5.092007,13.40247 0.808914,2.11276 15.379334,16.98374 77.532484,79.13183 52.33112,52.32685 77.11271,76.70215 78.35871,77.074 2.48492,0.7416 4.49087,0.75372 7.03565,0.0425 z"
   style="fill:#000000;stroke-width:0.613334" /></svg>
