<?xml version="1.0" encoding="UTF-8" standalone="no"?>
<svg
   xmlns:dc="http://purl.org/dc/elements/1.1/"
   xmlns:cc="http://creativecommons.org/ns#"
   xmlns:rdf="http://www.w3.org/1999/02/22-rdf-syntax-ns#"
   xmlns:svg="http://www.w3.org/2000/svg"
   xmlns="http://www.w3.org/2000/svg"
   xmlns:sodipodi="http://sodipodi.sourceforge.net/DTD/sodipodi-0.dtd"
   xmlns:inkscape="http://www.inkscape.org/namespaces/inkscape"
   inkscape:version="1.0 (4035a4fb49, 2020-05-01)"
   sodipodi:docname="phone.svg"
   xml:space="preserve"
   style="enable-background:new 0 0 512 512;"
   viewBox="0 0 512 512"
   y="0px"
   x="0px"
   id="Capa_1"
   version="1.1"><metadata
   id="metadata41"><rdf:RDF><cc:Work
       rdf:about=""><dc:format>image/svg+xml</dc:format><dc:type
         rdf:resource="http://purl.org/dc/dcmitype/StillImage" /></cc:Work></rdf:RDF></metadata><defs
   id="defs39" /><sodipodi:namedview
   inkscape:current-layer="Capa_1"
   inkscape:window-maximized="1"
   inkscape:window-y="-11"
   inkscape:window-x="-11"
   inkscape:cy="256"
   inkscape:cx="256"
   inkscape:zoom="1.5625"
   showgrid="false"
   id="namedview37"
   inkscape:window-height="986"
   inkscape:window-width="1920"
   inkscape:pageshadow="2"
   inkscape:pageopacity="0"
   guidetolerance="10"
   gridtolerance="10"
   objecttolerance="10"
   borderopacity="1"
   bordercolor="#666666"
   pagecolor="#ffffff" />


<g
   id="g6">
</g>
<g
   id="g8">
</g>
<g
   id="g10">
</g>
<g
   id="g12">
</g>
<g
   id="g14">
</g>
<g
   id="g16">
</g>
<g
   id="g18">
</g>
<g
   id="g20">
</g>
<g
   id="g22">
</g>
<g
   id="g24">
</g>
<g
   id="g26">
</g>
<g
   id="g28">
</g>
<g
   id="g30">
</g>
<g
   id="g32">
</g>
<g
   id="g34">
</g>
<path
   id="path43"
   d="M 236.48,510.95772 C 190.01722,507.19522 145.25437,490.90657 107.65378,464.07943 85.363264,448.17567 62.742852,425.48376 47.285183,403.52 4.467454,342.68042 -9.867945,266.9877 7.7746144,194.89921 15.050326,165.17024 29.030217,134.40287 46.605059,109.44 63.102381,86.00761 86.00761,63.102381 109.44,46.605059 151.54936,16.958415 204.2469,0.32 256.035,0.32 c 47.83786,0 95.80309,13.912107 136.43427,39.57218 16.88371,10.662673 28.77296,20.28364 44.36112,35.897702 15.687,15.713075 26.27661,29.043718 36.89907,46.450118 20.13945,33.00132 31.573,66.22439 36.45185,105.92 1.60065,13.02339 1.60065,42.65661 0,55.68 -6.21263,50.5476 -24.01087,93.22657 -55.38107,132.8 -7.83981,9.88991 -28.30251,30.34825 -38.16024,38.15211 -23.68063,18.74674 -46.4372,31.58619 -73.6,41.52572 -33.04365,12.09148 -71.97693,17.44038 -106.56,14.63989 z M 390.97818,398.7463 c 3.17627,-1.55792 6.19714,-4.57328 7.78231,-7.76812 1.16899,-2.35604 1.25033,-4.35525 1.42972,-35.13818 0.13869,-23.79754 -0.0162,-33.38517 -0.57175,-35.39064 -1.06572,-3.84717 -3.83939,-7.41605 -7.37309,-9.48693 -2.84607,-1.66791 -3.70733,-1.80656 -15.94303,-2.56661 -25.78001,-1.60138 -44.79034,-6.12546 -66.22234,-15.75962 -6.45187,-2.90025 -7.87354,-3.30722 -11.52201,-3.29827 -3.35566,0.008 -4.81312,0.36458 -7.52277,1.83936 -1.84842,1.00603 -4.05079,2.73383 -4.89416,3.83955 -0.84337,1.10571 -4.15715,7.44628 -7.36395,14.09016 -3.20681,6.64387 -5.93663,12.18585 -6.06628,12.3155 -0.57846,0.57846 -14.96705,-8.7683 -23.75083,-15.42843 -15.27171,-11.57946 -31.29906,-27.60865 -42.94915,-42.95407 -6.62134,-8.72157 -16.01362,-23.17056 -15.43664,-23.74755 0.12785,-0.12784 5.64537,-2.83902 12.26116,-6.02482 6.61578,-3.18581 12.95783,-6.50106 14.09344,-7.36723 1.13561,-0.86617 2.89913,-3.08811 3.91892,-4.93763 1.51735,-2.75188 1.85178,-4.11848 1.84098,-7.52277 -0.0115,-3.62332 -0.44654,-5.12787 -3.37218,-11.66228 -9.66129,-21.57852 -14.11031,-40.28936 -15.71235,-66.08006 -0.76005,-12.2357 -0.8987,-13.09696 -2.56661,-15.94303 -2.07191,-3.53546 -5.6422,-6.30916 -9.48693,-7.37028 -1.99893,-0.55168 -11.6707,-0.70793 -35.39064,-0.57175 -30.78615,0.17676 -32.78189,0.2578 -35.13818,1.42691 -3.19621,1.58585 -6.21141,4.60736 -7.76606,7.78231 -2.97822,6.08218 -1.2569,34.5534 3.59999,59.54498 18.08685,93.06753 84.86744,170.95806 174.43713,203.4573 28.24476,10.24826 62.35663,16.41238 88.86712,16.05858 6.74267,-0.09 8.79361,-0.34335 10.81818,-1.33638 z"
   style="fill:#000000;stroke-width:0.64" /></svg>
